{"glyphs":{"0":{"ha":2501,"x_min":77,"x_max":2416,"o":"m 1069 558 l 1367 1035 q 1472 1091 1402 1091 q 1557 1059 1522 1091 q 1592 982 1592 1027 q 1575 927 1592 952 l 1328 532 l 1031 56 q 926 -1 996 -1 q 841 31 876 -1 q 806 108 806 63 q 823 163 806 138 l 1069 558 m 556 663 l 576 672 q 653 767 651 699 q 619 844 653 811 q 541 877 586 875 l 77 877 q 148 1031 77 967 q 317 1095 218 1095 l 536 1095 q 789 1000 684 1095 q 894 770 894 904 q 878 676 894 719 q 906 553 906 620 q 801 323 906 419 q 549 228 697 228 l 330 228 q 160 292 231 228 q 90 446 90 356 l 553 446 q 627 480 599 448 q 662 556 662 513 q 587 654 662 626 l 556 663 m 2031 868 q 2116 836 2081 868 q 2151 759 2151 804 l 2151 438 l 2416 438 q 2345 284 2416 348 q 2176 220 2275 220 l 2151 220 l 2151 109 q 2116 32 2151 63 q 2031 0 2081 0 q 1946 32 1981 0 q 1911 109 1911 63 l 1911 220 l 1805 220 q 1635 284 1706 220 q 1565 438 1565 348 l 1565 759 q 1600 836 1565 804 q 1685 868 1636 868 q 1770 836 1735 868 q 1805 759 1805 804 l 1805 438 l 1911 438 l 1911 759 q 1946 836 1911 804 q 2031 868 1981 868 z "},"1":{"ha":431,"x_min":95,"x_max":335,"o":"m 215 1090 q 300 1058 265 1090 q 335 981 335 1026 l 335 109 q 300 32 335 63 q 215 0 265 0 q 130 32 165 0 q 95 109 95 63 l 95 981 q 130 1058 95 1026 q 215 1090 165 1090 z "},"2":{"ha":1567,"x_min":95,"x_max":1472,"o":"m 1231 0 l 338 0 q 167 64 238 0 q 95 218 97 127 l 95 329 q 200 559 95 464 q 453 654 306 654 l 1114 654 q 1197 686 1163 654 q 1231 763 1231 718 q 1197 839 1231 806 q 1114 872 1163 872 l 95 872 q 166 1026 95 962 q 335 1090 237 1090 l 1114 1090 q 1367 995 1262 1090 q 1472 765 1472 899 q 1367 535 1472 631 q 1114 440 1262 440 l 453 440 l 453 436 q 370 403 405 436 q 338 327 335 371 l 338 218 l 1472 218 q 1401 64 1472 128 q 1231 0 1331 0 z "},"3":{"ha":1567,"x_min":95,"x_max":1472,"o":"m 1114 218 q 1197 251 1162 218 q 1231 329 1231 285 q 1197 407 1231 373 q 1114 440 1162 440 l 644 440 q 477 503 547 440 q 407 654 408 565 l 1114 654 q 1197 688 1162 654 q 1231 765 1231 721 q 1197 841 1231 809 q 1114 872 1162 872 l 95 872 q 166 1026 95 962 q 335 1090 236 1090 l 1114 1090 q 1366 995 1261 1090 q 1472 765 1472 899 q 1379 547 1472 640 q 1447 466 1422 503 q 1472 329 1472 428 q 1367 115 1472 230 q 1115 0 1263 0 l 338 0 q 167 64 238 0 q 95 218 97 127 l 1114 218 z "},"4":{"ha":1567,"x_min":95,"x_max":1472,"o":"m 790 1090 q 875 1058 840 1090 q 910 981 910 1026 l 910 438 l 1472 438 q 1401 284 1472 348 q 1231 220 1331 220 l 910 220 l 910 109 q 875 32 910 63 q 790 0 840 0 q 705 32 740 0 q 670 109 670 63 l 670 220 l 335 220 q 166 284 237 220 q 95 438 95 348 l 95 981 q 131 1058 95 1026 q 215 1090 167 1090 q 301 1058 266 1090 q 335 981 335 1026 l 335 438 l 670 438 l 670 981 q 705 1058 670 1026 q 790 1090 740 1090 z "},"5":{"ha":1563,"x_min":95,"x_max":1472,"o":"m 1114 654 q 1366 559 1261 654 q 1472 329 1472 464 q 1366 99 1472 194 q 1114 4 1261 4 l 1114 0 l 335 0 q 166 64 236 0 q 95 218 95 128 l 1114 218 q 1197 250 1162 218 q 1231 327 1231 283 q 1197 403 1231 371 q 1114 436 1162 436 l 1114 440 l 338 440 q 167 504 238 440 q 95 658 97 567 l 95 872 q 167 1026 97 963 q 338 1090 238 1090 l 1186 1090 q 1372 1027 1292 1090 q 1467 872 1451 965 l 338 872 l 338 654 l 1114 654 z "},"6":{"ha":1567,"x_min":97,"x_max":1472,"o":"m 694 1089 l 1231 1089 q 1401 1025 1330 1089 q 1472 871 1472 960 l 694 871 l 694 1089 m 694 218 l 1112 218 q 1196 250 1160 218 q 1231 327 1231 282 q 1196 404 1231 372 q 1112 436 1160 436 l 692 436 q 523 500 593 436 q 452 654 452 564 l 1112 654 q 1366 558 1260 654 q 1472 327 1472 463 q 1366 96 1472 192 q 1112 0 1260 0 l 694 0 l 694 218 m 336 544 q 364 418 336 477 q 441 314 392 358 q 555 244 490 269 q 694 218 620 218 l 694 0 q 535 19 612 0 q 393 74 459 39 q 272 159 326 109 q 178 269 217 208 q 118 399 139 329 q 97 543 97 468 q 118 688 97 618 q 178 818 139 758 q 272 929 217 879 q 393 1014 326 978 q 535 1069 459 1050 q 694 1089 612 1089 l 694 871 q 555 845 620 871 q 441 775 490 819 q 364 671 392 731 q 336 544 336 612 z "},"7":{"ha":1567,"x_min":95,"x_max":1472,"o":"m 1351 0 q 1266 32 1301 0 q 1231 109 1231 64 l 1231 872 l 95 872 q 166 1026 95 963 q 335 1090 236 1090 l 1231 1090 q 1401 1026 1330 1090 q 1472 872 1472 963 l 1472 109 q 1436 32 1472 64 q 1351 0 1400 0 z "},"8":{"ha":1567,"x_min":95,"x_max":1472,"o":"m 1115 0 l 452 0 q 200 115 304 0 q 95 329 95 230 q 120 466 95 428 q 188 547 145 503 q 95 765 95 640 q 200 995 95 899 q 453 1090 306 1090 l 1114 1090 q 1366 995 1261 1090 q 1472 765 1472 899 q 1379 547 1472 640 q 1447 466 1422 503 q 1472 329 1472 428 q 1367 115 1472 230 q 1115 0 1263 0 m 1114 218 q 1197 251 1162 218 q 1231 329 1231 285 q 1197 407 1231 373 q 1114 440 1162 440 l 740 440 q 573 503 642 440 q 503 654 503 565 l 1114 654 q 1197 688 1162 654 q 1231 765 1231 721 q 1197 841 1231 809 q 1114 872 1162 872 l 453 872 q 370 841 405 872 q 335 765 335 809 q 370 688 335 721 q 453 654 405 654 l 453 440 q 370 407 405 440 q 335 329 335 373 q 370 251 335 285 q 453 218 405 218 l 1114 218 z "},"9":{"ha":1567,"x_min":97,"x_max":1472,"o":"m 874 0 l 337 0 q 167 64 238 0 q 97 218 97 128 l 874 218 l 874 0 m 874 871 l 456 871 q 372 839 408 871 q 337 762 337 807 q 372 685 337 717 q 456 653 408 653 l 876 653 q 1045 589 975 653 q 1116 435 1116 525 l 456 435 q 202 531 308 435 q 97 762 97 626 q 202 993 97 897 q 456 1089 308 1089 l 874 1089 l 874 871 m 1232 544 q 1204 671 1232 612 q 1127 775 1176 731 q 1013 845 1078 819 q 874 871 948 871 l 874 1089 q 1033 1069 956 1089 q 1175 1015 1109 1050 q 1297 930 1242 980 q 1390 820 1351 881 q 1450 690 1429 760 q 1472 546 1472 621 q 1450 401 1472 471 q 1390 270 1429 331 q 1297 160 1351 210 q 1175 75 1242 110 q 1033 19 1109 39 q 874 0 956 0 l 874 218 q 1013 244 948 218 q 1127 314 1078 270 q 1204 418 1176 358 q 1232 544 1232 477 z "}," ":{"ha":458,"x_min":0,"x_max":0,"o":""},"!":{"ha":431,"x_min":95,"x_max":336,"o":"m 215 1090 q 300 1058 265 1090 q 335 981 335 1026 l 335 547 q 300 470 335 501 q 215 438 265 438 q 130 470 165 438 q 95 547 95 501 l 95 981 q 130 1058 95 1026 q 215 1090 165 1090 m 95 109 q 105 66 95 86 q 130 32 114 47 q 168 9 147 17 q 215 0 190 0 q 262 9 240 0 q 301 32 284 17 q 327 66 317 47 q 336 109 336 86 q 327 152 336 132 q 301 186 317 172 q 262 210 284 201 q 215 219 240 219 q 168 210 190 219 q 130 186 147 201 q 105 152 114 172 q 95 109 95 132 z "},"\"":{"ha":776,"x_min":95,"x_max":672,"o":"m 552 1090 q 637 1058 602 1090 q 672 981 672 1026 l 672 547 q 637 470 672 501 q 552 438 602 438 q 467 470 502 438 q 432 547 432 501 l 432 981 q 467 1058 432 1026 q 552 1090 502 1090 m 215 1090 q 300 1058 265 1090 q 335 981 335 1026 l 335 547 q 300 470 335 501 q 215 438 265 438 q 130 470 165 438 q 95 547 95 501 l 95 981 q 130 1058 95 1026 q 215 1090 165 1090 z "},"#":{"ha":1416,"x_min":53,"x_max":1350,"o":"m 533 1090 q 618 1058 583 1090 q 653 981 653 1026 l 653 833 l 749 833 l 749 981 q 784 1058 749 1026 q 869 1090 819 1090 q 955 1058 919 1090 q 990 981 990 1026 l 990 833 l 1241 833 q 1318 798 1287 833 q 1350 713 1350 763 q 1318 627 1350 663 q 1241 592 1287 592 l 990 592 l 990 496 l 1241 496 q 1318 461 1287 496 q 1350 376 1350 426 q 1318 291 1350 326 q 1241 256 1287 256 l 990 256 l 990 106 q 955 29 990 60 q 869 -3 919 -3 q 784 29 819 -3 q 749 106 749 60 l 749 256 l 653 256 l 653 106 q 618 29 653 60 q 533 -3 583 -3 q 448 29 483 -3 q 413 106 413 60 l 413 256 l 163 256 q 85 291 117 256 q 53 376 53 326 q 85 461 53 426 q 163 496 117 496 l 413 496 l 413 592 l 163 592 q 85 627 117 592 q 53 713 53 663 q 85 798 53 763 q 163 833 117 833 l 413 833 l 413 981 q 448 1058 413 1026 q 533 1090 483 1090 m 653 496 l 749 496 l 749 592 l 653 592 l 653 496 z "},"$":{"ha":1567,"x_min":95,"x_max":1472,"o":"m 453 1090 l 656 1090 l 656 1091 q 691 1168 656 1136 q 776 1200 726 1200 q 861 1168 826 1200 q 897 1091 897 1136 l 897 1090 l 1231 1090 q 1401 1026 1330 1090 q 1472 872 1472 962 l 897 872 l 897 654 l 1114 654 q 1366 559 1261 654 q 1472 329 1472 464 q 1366 99 1472 194 q 1114 4 1261 4 l 1114 0 l 897 0 l 897 -2 q 861 -80 897 -48 q 776 -111 826 -111 q 691 -80 726 -111 q 656 -2 656 -48 l 656 0 l 335 0 q 166 64 236 0 q 95 218 95 128 l 656 218 l 656 440 l 453 440 q 200 535 305 440 q 95 765 95 631 q 200 995 95 899 q 453 1090 305 1090 m 1114 218 q 1197 250 1162 218 q 1231 327 1231 283 q 1197 403 1231 371 q 1114 436 1162 436 l 1114 440 l 897 440 l 897 218 l 1114 218 m 369 839 q 335 763 335 806 q 370 686 335 718 q 453 654 404 654 l 656 654 l 656 872 l 453 872 q 369 839 404 872 z "},"%":{"ha":1760,"x_min":78,"x_max":1681,"o":"m 745 558 l 1042 1035 q 1148 1091 1078 1091 q 1233 1059 1198 1091 q 1268 982 1268 1027 q 1251 927 1268 952 l 1004 532 l 707 56 q 601 -1 672 -1 q 516 31 551 -1 q 481 108 481 63 q 499 163 481 138 l 745 558 m 1031 326 q 1056 199 1031 258 q 1126 96 1082 140 q 1229 26 1170 52 q 1356 1 1288 1 q 1482 26 1423 1 q 1585 96 1541 52 q 1655 199 1629 140 q 1681 326 1681 258 q 1655 452 1681 393 q 1585 555 1629 511 q 1482 625 1541 599 q 1356 651 1423 651 q 1229 625 1288 651 q 1126 555 1170 599 q 1056 452 1082 511 q 1031 326 1031 393 m 1244 324 q 1253 365 1244 346 q 1275 399 1261 385 q 1308 422 1289 413 q 1349 430 1327 430 q 1390 422 1371 430 q 1424 399 1410 413 q 1447 365 1438 385 q 1455 324 1455 346 q 1447 283 1455 302 q 1424 250 1438 264 q 1390 228 1410 236 q 1349 219 1371 219 q 1308 228 1327 219 q 1275 250 1289 236 q 1253 283 1261 264 q 1244 324 1244 302 m 78 765 q 104 639 78 698 q 174 536 130 580 q 277 466 218 492 q 403 440 336 440 q 530 466 471 440 q 633 536 589 492 q 703 639 677 580 q 728 765 728 698 q 703 892 728 833 q 633 995 677 951 q 530 1065 589 1039 q 403 1090 471 1090 q 277 1065 336 1090 q 174 995 218 1039 q 104 892 130 951 q 78 765 78 833 m 292 764 q 301 805 292 785 q 323 839 309 824 q 356 861 337 853 q 397 869 375 869 q 438 861 419 869 q 472 839 458 853 q 494 805 486 824 q 503 764 503 785 q 494 723 503 742 q 472 690 486 703 q 438 667 458 676 q 397 659 419 659 q 356 667 375 659 q 323 690 337 676 q 301 723 309 703 q 292 764 292 742 z "},"&":{"ha":1567,"x_min":95,"x_max":1472,"o":"m 1053 872 l 1053 654 l 1454 654 q 1384 503 1453 565 q 1217 440 1315 440 l 1053 440 l 1053 219 l 1053 218 l 1472 218 q 1400 64 1470 127 q 1229 0 1329 0 l 452 0 q 200 115 304 0 q 95 329 95 230 q 120 466 95 428 q 188 547 145 503 q 95 765 95 640 q 200 995 95 899 q 453 1090 306 1090 l 814 1090 q 983 1026 913 1090 q 1053 872 1053 962 m 370 406 q 335 329 335 373 q 370 251 335 285 q 453 218 405 218 l 813 218 l 813 219 l 813 440 l 453 440 q 370 406 405 440 m 370 840 q 335 765 335 809 q 370 688 335 721 q 453 654 405 654 l 813 654 l 813 872 l 453 872 q 370 840 405 872 z "},"'":{"ha":431,"x_min":95,"x_max":335,"o":"m 215 1090 q 300 1058 265 1090 q 335 981 335 1026 l 335 547 q 300 470 335 501 q 215 438 265 438 q 130 470 165 438 q 95 547 95 501 l 95 981 q 130 1058 95 1026 q 215 1090 165 1090 z "},"(":{"ha":734,"x_min":95,"x_max":626,"o":"m 338 1090 l 344 1090 q 530 1027 451 1090 q 626 872 610 965 l 338 872 l 338 218 l 626 218 q 530 63 610 125 q 344 0 451 0 l 338 0 q 167 64 238 0 q 95 218 97 127 l 95 872 q 167 1026 97 963 q 338 1090 238 1090 z "},")":{"ha":734,"x_min":95,"x_max":626,"o":"m 383 1090 q 554 1026 483 1090 q 626 872 625 963 l 626 218 q 554 64 625 127 q 383 0 483 0 l 376 0 q 191 63 270 0 q 95 218 112 125 l 383 218 l 383 872 l 95 872 q 191 1027 112 965 q 376 1090 270 1090 l 383 1090 z "},"*":{"ha":772,"x_min":65,"x_max":706,"o":"m 89 580 q 77 664 65 620 q 128 731 89 708 l 163 751 l 128 771 q 77 838 89 794 q 89 922 65 881 q 156 974 113 963 q 240 964 200 986 l 274 943 l 275 984 q 307 1061 275 1030 q 386 1093 340 1093 q 465 1061 433 1093 q 497 984 497 1030 l 497 943 l 532 963 q 615 974 572 986 q 682 922 659 962 q 694 838 706 881 q 643 771 683 794 l 608 751 l 643 731 q 694 664 683 708 q 682 580 706 620 q 615 527 658 539 q 531 538 572 515 l 496 558 l 496 517 q 464 440 497 472 q 385 408 431 408 q 306 440 338 408 q 274 517 274 472 l 274 558 l 239 538 q 156 527 200 515 q 89 580 112 540 z "},"+":{"ha":772,"x_min":43,"x_max":728,"o":"m 43 545 q 75 624 43 592 q 152 656 107 656 l 274 656 l 274 778 q 307 856 274 824 q 385 888 339 888 q 464 856 432 888 q 497 778 497 824 l 497 656 l 619 656 q 696 624 665 656 q 728 545 728 592 q 696 466 728 499 q 619 434 665 434 l 497 434 l 497 312 q 464 235 497 267 q 385 203 432 203 q 307 235 339 203 q 274 312 274 267 l 274 434 l 152 434 q 75 466 107 434 q 43 545 43 499 z "},",":{"ha":431,"x_min":95,"x_max":335,"o":"m 335 314 l 335 210 q 265 56 335 120 q 95 -8 194 -8 l 95 314 l 335 314 z "},"-":{"ha":772,"x_min":43,"x_max":728,"o":"m 43 545 q 75 624 43 592 q 152 656 107 656 l 619 656 q 696 624 665 656 q 728 545 728 592 q 696 466 728 499 q 619 434 665 434 l 152 434 q 75 466 107 434 q 43 545 43 499 z "},".":{"ha":2014,"x_min":132,"x_max":1941,"o":"m 604 558 l 901 1035 q 1007 1091 937 1091 q 1092 1059 1057 1091 q 1127 982 1127 1027 q 1110 927 1127 952 l 863 532 l 566 56 q 460 -1 531 -1 q 375 31 410 -1 q 340 108 340 63 q 358 163 340 138 l 604 558 m 1556 868 q 1641 836 1606 868 q 1676 759 1676 804 l 1676 438 l 1941 438 q 1870 284 1941 348 q 1701 220 1800 220 l 1676 220 l 1676 109 q 1641 32 1676 63 q 1556 0 1606 0 q 1471 32 1506 0 q 1436 109 1436 63 l 1436 220 l 1330 220 q 1160 284 1231 220 q 1090 438 1090 348 l 1090 759 q 1125 836 1090 804 q 1210 868 1161 868 q 1295 836 1260 868 q 1330 759 1330 804 l 1330 438 l 1436 438 l 1436 759 q 1471 836 1436 804 q 1556 868 1506 868 m 251 1101 q 336 1069 301 1101 q 372 992 372 1038 l 372 342 q 336 265 372 297 q 251 233 301 233 q 167 265 201 233 q 132 342 132 297 l 132 992 q 167 1069 132 1038 q 251 1101 201 1101 z "},"/":{"ha":2034,"x_min":136,"x_max":1911,"o":"m 641 558 l 938 1035 q 1044 1091 974 1091 q 1129 1059 1094 1091 q 1164 982 1164 1027 q 1147 927 1164 952 l 900 532 l 603 56 q 497 -1 567 -1 q 412 31 447 -1 q 377 108 377 63 q 394 163 377 138 l 641 558 m 256 1101 q 341 1069 306 1101 q 376 992 376 1038 l 376 342 q 341 265 376 297 q 256 233 306 233 q 171 265 206 233 q 136 342 136 297 l 136 992 q 171 1069 136 1038 q 256 1101 206 1101 m 1544 426 l 1615 464 q 1651 539 1651 494 q 1617 615 1651 583 q 1539 649 1584 647 l 1075 649 q 1145 802 1075 738 q 1315 867 1216 867 l 1534 867 q 1787 771 1682 867 q 1892 542 1892 676 q 1783 321 1892 407 l 1711 276 l 1622 219 l 1911 220 q 1840 66 1911 130 q 1671 2 1769 2 l 1188 2 q 1102 34 1138 2 q 1067 111 1067 65 q 1111 195 1067 162 l 1544 426 z "},":":{"ha":431,"x_min":95,"x_max":336,"o":"m 95 547 q 105 589 95 569 q 130 624 114 609 q 168 648 147 639 q 215 656 190 656 q 262 648 240 656 q 301 624 284 639 q 327 589 317 609 q 336 547 336 569 q 327 504 336 524 q 301 469 317 484 q 262 446 284 455 q 215 438 240 438 q 168 446 190 438 q 130 469 147 455 q 105 504 114 484 q 95 547 95 524 m 95 109 q 105 152 95 132 q 130 186 114 172 q 168 210 147 201 q 215 219 190 219 q 262 210 240 219 q 301 186 284 201 q 327 152 317 172 q 336 109 336 132 q 327 66 336 86 q 301 32 317 47 q 262 9 284 17 q 215 0 240 0 q 168 9 190 0 q 130 32 147 17 q 105 66 114 47 q 95 109 95 86 z "},";":{"ha":431,"x_min":95,"x_max":336,"o":"m 335 314 l 335 210 q 265 56 335 120 q 95 -8 194 -8 l 95 314 l 335 314 m 95 547 q 105 589 95 569 q 130 624 114 609 q 168 648 147 639 q 215 656 190 656 q 262 648 240 656 q 301 624 284 639 q 327 589 317 609 q 336 547 336 569 q 327 504 336 524 q 301 469 317 484 q 262 446 284 455 q 215 438 240 438 q 168 446 190 438 q 130 469 147 455 q 105 504 114 484 q 95 547 95 524 z "},"<":{"ha":749,"x_min":95,"x_max":654,"o":"m 594 1069 q 641 996 634 1041 q 617 916 647 951 l 617 915 l 317 553 l 624 177 l 625 176 q 647 95 654 140 q 601 24 640 51 q 511 4 560 -3 q 433 46 462 10 l 431 47 l 158 381 q 95 553 95 459 q 160 725 95 647 l 426 1047 q 505 1089 456 1083 q 594 1069 555 1096 z "},"=":{"ha":772,"x_min":43,"x_max":728,"o":"m 43 768 q 75 847 43 815 q 152 879 107 879 l 619 879 q 696 847 665 879 q 728 768 728 815 q 696 689 728 722 q 619 657 665 657 l 152 657 q 75 689 107 657 q 43 768 43 722 m 43 321 q 75 400 43 367 q 152 432 107 432 l 619 432 q 696 400 665 432 q 728 321 728 367 q 696 242 728 274 q 619 210 665 210 l 152 210 q 75 242 107 210 q 43 321 43 274 z "},">":{"ha":749,"x_min":95,"x_max":654,"o":"m 156 1069 q 244 1089 194 1096 q 324 1047 294 1083 l 590 725 q 654 553 654 647 q 591 381 654 459 l 318 47 l 317 46 q 238 4 288 10 q 149 24 189 -3 q 102 95 110 51 q 124 176 95 140 l 125 177 l 433 553 l 132 915 l 132 916 q 109 996 102 951 q 156 1069 115 1041 z "},"?":{"ha":1567,"x_min":95,"x_max":1472,"o":"m 849 654 l 1119 654 q 1197 686 1164 656 q 1231 763 1231 718 q 1197 839 1231 806 q 1114 872 1163 872 l 95 872 q 166 1026 95 962 q 335 1090 237 1090 l 1114 1090 q 1367 995 1262 1090 q 1472 765 1472 899 q 1367 535 1472 631 q 1114 440 1262 440 l 608 436 q 679 590 608 526 q 849 654 749 654 m 625 109 q 634 66 625 86 q 660 32 644 47 q 698 9 676 17 q 745 0 720 0 q 792 9 770 0 q 831 32 814 17 q 857 66 847 47 q 866 109 866 86 q 857 152 866 132 q 831 186 847 172 q 792 210 814 201 q 745 219 770 219 q 698 210 720 219 q 660 186 676 201 q 634 152 644 172 q 625 109 625 132 z "},"@":{"ha":1567,"x_min":95,"x_max":1472,"o":"m 812 218 l 1231 218 l 1231 547 q 1203 673 1231 614 q 1126 776 1175 732 q 1013 846 1078 820 q 874 872 948 872 l 694 872 q 555 846 620 872 q 441 776 490 820 q 364 673 392 732 q 335 547 335 614 l 335 103 q 300 26 335 58 q 215 -6 265 -6 q 130 26 165 -6 q 95 103 95 58 l 95 547 q 117 691 95 622 q 177 821 138 760 q 271 931 216 881 q 392 1016 326 981 q 535 1071 459 1051 q 694 1090 612 1090 l 874 1090 q 1033 1071 957 1090 q 1176 1016 1110 1051 q 1297 931 1242 981 q 1390 821 1351 881 q 1450 691 1429 760 q 1472 547 1472 622 l 1472 218 q 1401 64 1472 128 q 1231 0 1330 0 l 1109 0 l 1109 -1 l 771 -1 q 518 95 623 -1 q 413 324 413 190 q 518 554 413 459 q 771 653 623 649 l 901 653 l 901 653 l 924 653 q 1093 589 1023 653 q 1164 435 1164 525 l 756 435 q 688 403 717 431 q 653 327 653 372 q 688 250 653 283 q 771 217 722 217 l 812 217 l 812 218 z "},"A":{"ha":1837,"x_min":95,"x_max":1742,"o":"m 1721 165 q 1742 105 1742 137 q 1708 31 1742 61 q 1626 0 1674 0 q 1529 47 1563 0 l 1397 227 l 442 227 l 307 47 q 211 0 273 0 q 129 31 163 0 q 95 105 95 61 q 116 165 95 137 l 744 1006 q 919 1090 807 1090 q 1094 1006 1032 1090 l 1721 165 m 919 867 l 599 437 l 1240 437 l 919 867 z "},"B":{"ha":1567,"x_min":95,"x_max":1472,"o":"m 95 218 l 95 872 q 166 1026 95 962 q 335 1090 236 1090 l 1114 1090 q 1366 995 1261 1090 q 1472 765 1472 899 q 1379 547 1472 640 q 1447 466 1422 503 q 1472 329 1472 428 q 1367 115 1472 230 q 1115 0 1263 0 l 338 0 q 167 64 238 0 q 95 218 97 127 m 407 654 l 1114 654 q 1197 688 1162 654 q 1231 765 1231 721 q 1197 841 1231 809 q 1114 872 1162 872 l 338 875 l 338 221 l 1114 218 q 1197 251 1162 218 q 1231 329 1231 285 q 1197 407 1231 373 q 1114 440 1162 440 l 644 440 q 477 503 547 440 q 407 654 408 565 z "},"C":{"ha":1563,"x_min":97,"x_max":1467,"o":"m 336 544 q 364 418 336 477 q 441 314 392 358 q 555 244 490 269 q 694 218 620 218 l 1467 218 q 1372 63 1451 125 q 1186 0 1292 0 l 694 0 q 535 19 612 0 q 393 74 459 39 q 272 159 326 109 q 178 269 217 208 q 118 399 139 329 q 97 543 97 468 q 118 688 97 618 q 178 818 139 758 q 272 929 217 879 q 393 1014 326 978 q 535 1069 459 1050 q 694 1089 612 1089 l 1186 1089 q 1372 1026 1292 1089 q 1467 871 1451 963 l 694 871 q 555 845 620 871 q 441 775 490 819 q 364 671 392 731 q 336 544 336 612 z "},"D":{"ha":1567,"x_min":95,"x_max":1473,"o":"m 1233 544 q 1205 671 1233 612 q 1128 775 1177 731 q 1015 845 1080 819 q 875 871 949 871 l 335 871 l 335 108 q 300 30 335 62 q 215 -1 265 -1 q 130 30 165 -1 q 95 108 95 62 l 95 871 q 165 1025 95 960 q 335 1089 235 1089 l 875 1089 q 1034 1069 958 1089 q 1177 1015 1110 1050 q 1298 930 1243 980 q 1392 820 1353 881 q 1452 690 1431 760 q 1473 546 1473 621 q 1452 401 1473 471 q 1392 270 1431 331 q 1298 160 1353 210 q 1177 75 1243 110 q 1034 19 1110 39 q 875 0 958 0 l 647 0 q 477 64 548 0 q 407 218 407 128 l 875 218 q 1015 244 949 218 q 1128 314 1080 270 q 1205 418 1177 358 q 1233 544 1233 477 z "},"E":{"ha":1563,"x_min":95,"x_max":1467,"o":"m 338 1090 l 1186 1090 q 1372 1027 1292 1090 q 1467 872 1451 965 l 338 872 l 338 654 l 1161 654 q 1091 500 1161 564 q 922 436 1021 436 l 338 436 l 338 218 l 1467 218 q 1372 63 1451 125 q 1186 0 1292 0 l 338 0 q 167 64 238 0 q 95 218 97 127 l 95 872 q 167 1026 97 963 q 338 1090 238 1090 z "},"F":{"ha":1563,"x_min":95,"x_max":1467,"o":"m 338 109 q 302 32 338 63 q 217 0 266 0 q 131 32 167 0 q 95 109 95 63 l 95 872 q 167 1026 97 963 q 338 1090 238 1090 l 1186 1090 q 1372 1027 1292 1090 q 1467 872 1451 965 l 338 872 l 338 654 l 1161 654 q 1091 500 1161 564 q 922 436 1021 436 l 338 436 l 338 109 z "},"G":{"ha":1567,"x_min":97,"x_max":1472,"o":"m 336 544 q 364 418 336 477 q 441 314 392 358 q 555 244 490 269 q 694 218 620 218 l 1112 218 q 1196 250 1160 218 q 1231 327 1231 282 q 1196 404 1231 372 q 1112 436 1160 436 l 1003 436 q 834 500 904 436 q 763 654 763 564 l 1112 654 q 1366 558 1260 654 q 1472 327 1472 463 q 1366 96 1472 192 q 1112 0 1260 0 l 694 0 q 535 19 612 0 q 393 74 459 39 q 272 159 326 109 q 178 269 217 208 q 118 399 139 329 q 97 543 97 468 q 118 688 97 618 q 178 818 139 758 q 272 929 217 879 q 393 1014 326 978 q 535 1069 459 1050 q 694 1089 612 1089 l 1231 1089 q 1401 1025 1330 1089 q 1472 871 1472 960 l 694 871 q 555 845 620 871 q 441 775 490 819 q 364 671 392 731 q 336 544 336 612 z "},"H":{"ha":1567,"x_min":95,"x_max":1472,"o":"m 1351 1090 q 1436 1058 1400 1090 q 1472 981 1472 1026 l 1472 109 q 1436 32 1472 63 q 1351 0 1400 0 q 1266 32 1301 0 q 1231 109 1231 63 l 1231 436 l 647 436 q 477 500 548 436 q 407 654 407 564 l 1231 654 l 1231 981 q 1266 1058 1231 1026 q 1351 1090 1301 1090 m 215 1090 q 300 1058 265 1090 q 335 981 335 1026 l 335 109 q 300 32 335 63 q 215 0 265 0 q 130 32 165 0 q 95 109 95 63 l 95 981 q 130 1058 95 1026 q 215 1090 165 1090 z "},"I":{"ha":431,"x_min":95,"x_max":335,"o":"m 215 1090 q 300 1058 265 1090 q 335 981 335 1026 l 335 109 q 300 32 335 63 q 215 0 265 0 q 130 32 165 0 q 95 109 95 63 l 95 981 q 130 1058 95 1026 q 215 1090 165 1090 z "},"J":{"ha":1567,"x_min":95,"x_max":1472,"o":"m 1231 538 l 1231 981 q 1266 1058 1231 1026 q 1351 1090 1301 1090 q 1436 1058 1400 1090 q 1472 981 1472 1026 l 1472 538 q 1450 393 1472 463 q 1390 263 1429 324 q 1297 153 1351 203 q 1177 68 1243 103 q 1034 14 1110 33 q 875 -6 958 -6 l 335 -6 q 166 58 236 -6 q 95 213 95 122 l 874 213 q 1013 238 948 213 q 1126 308 1078 264 q 1203 411 1175 352 q 1231 538 1231 470 z "},"K":{"ha":1567,"x_min":95,"x_max":1472,"o":"m 407 654 l 933 654 l 1254 1046 q 1351 1090 1290 1090 q 1436 1058 1400 1090 q 1472 981 1472 1026 q 1447 916 1472 944 l 1148 552 l 1435 187 q 1472 109 1472 154 q 1436 32 1472 63 q 1351 0 1400 0 q 1257 42 1293 0 l 1255 41 l 945 436 l 647 436 q 477 500 548 436 q 407 654 407 564 m 215 1090 q 300 1058 265 1090 q 335 981 335 1026 l 335 109 q 300 32 335 63 q 215 0 265 0 q 130 32 165 0 q 95 109 95 63 l 95 981 q 130 1058 95 1026 q 215 1090 165 1090 z "},"L":{"ha":1567,"x_min":95,"x_max":1472,"o":"m 215 1090 q 300 1058 265 1090 q 335 981 335 1026 l 335 218 l 1472 218 q 1401 64 1472 128 q 1231 0 1330 0 l 335 0 q 166 64 236 0 q 95 218 95 128 l 95 981 q 130 1058 95 1026 q 215 1090 165 1090 z "},"M":{"ha":1794,"x_min":95,"x_max":1699,"o":"m 1579 1090 q 1664 1058 1628 1090 q 1699 981 1699 1026 l 1699 109 q 1664 32 1699 63 q 1579 0 1628 0 q 1494 32 1529 0 q 1459 109 1459 63 l 1459 646 l 1028 106 q 897 46 979 46 q 767 106 815 46 l 335 646 l 335 109 q 300 32 335 63 q 215 0 265 0 q 130 32 165 0 q 95 109 95 63 l 95 981 q 130 1058 95 1026 q 215 1090 165 1090 q 313 1045 276 1090 l 313 1044 l 897 314 l 1481 1044 l 1482 1045 q 1579 1090 1518 1090 z "},"N":{"ha":1567,"x_min":95,"x_max":1472,"o":"m 215 1090 q 292 1065 258 1090 l 1231 344 l 1231 981 q 1266 1058 1231 1026 q 1351 1090 1301 1090 q 1436 1058 1400 1090 q 1472 981 1472 1026 l 1472 109 q 1436 32 1472 63 q 1351 0 1400 0 q 1274 26 1308 0 l 335 747 l 335 109 q 300 32 335 63 q 215 0 265 0 q 130 32 165 0 q 95 109 95 63 l 95 981 q 130 1058 95 1026 q 215 1090 165 1090 z "},"O":{"ha":1724,"x_min":97,"x_max":1472,"o":"m 694 1082 l 874 1082 q 1033 1063 957 1082 q 1176 1008 1110 1043 q 1297 923 1242 972 q 1391 813 1352 873 q 1451 682 1430 752 q 1472 538 1472 613 q 1451 393 1472 463 q 1391 263 1430 324 q 1297 153 1352 203 q 1176 68 1242 103 q 1033 13 1110 33 q 874 -6 957 -6 l 694 -6 q 535 13 612 -6 q 393 68 459 33 q 272 153 326 103 q 178 263 217 203 q 118 393 139 324 q 97 538 97 463 q 118 682 97 613 q 178 813 139 752 q 272 923 217 873 q 393 1008 326 972 q 535 1063 459 1043 q 694 1082 612 1082 m 336 539 q 364 412 336 472 q 441 308 392 353 q 555 238 490 264 q 694 213 620 213 l 874 213 q 1014 238 949 213 q 1128 308 1079 264 q 1205 412 1176 353 q 1233 539 1233 472 q 1205 666 1233 606 q 1128 769 1176 725 q 1014 839 1079 813 q 874 865 949 865 l 694 865 q 555 839 620 865 q 441 769 490 813 q 364 666 392 725 q 336 539 336 606 z "},"P":{"ha":1567,"x_min":95,"x_max":1468,"o":"m 407 654 l 1110 654 q 1193 686 1159 654 q 1228 763 1228 718 q 1193 839 1228 806 q 1110 872 1159 872 l 335 872 l 335 109 q 300 32 335 63 q 215 0 265 0 q 130 32 165 0 q 95 109 95 63 l 95 872 q 165 1026 95 962 q 335 1090 235 1090 l 1110 1090 q 1363 995 1258 1090 q 1468 765 1468 899 q 1363 535 1468 631 q 1110 436 1258 440 l 647 436 q 477 500 548 436 q 407 654 407 564 z "},"Q":{"ha":1567,"x_min":97,"x_max":1472,"o":"m 694 1082 l 874 1082 q 1033 1063 957 1082 q 1176 1008 1110 1043 q 1297 923 1242 972 q 1391 813 1352 873 q 1451 682 1430 752 q 1472 538 1472 613 q 1447 380 1472 455 q 1376 241 1422 306 l 1436 186 q 1472 109 1472 154 q 1436 32 1472 63 q 1351 0 1400 0 q 1267 32 1301 0 l 1207 85 q 1051 18 1135 42 q 874 -6 967 -6 l 694 -6 q 535 13 612 -6 q 393 68 459 33 q 272 153 326 103 q 178 263 217 203 q 118 393 139 324 q 97 538 97 463 q 118 682 97 613 q 178 813 139 752 q 272 923 217 873 q 393 1008 326 972 q 535 1063 459 1043 q 694 1082 612 1082 m 336 539 q 364 412 336 472 q 441 308 392 353 q 555 238 490 264 q 694 213 620 213 l 874 213 q 956 221 917 213 q 1031 245 995 229 l 842 417 q 772 572 772 481 q 842 726 772 662 l 1199 401 q 1224 467 1215 433 q 1233 539 1233 501 q 1205 666 1233 606 q 1128 769 1176 725 q 1014 839 1079 813 q 874 865 949 865 l 694 865 q 555 839 620 865 q 441 769 490 813 q 364 666 392 725 q 336 539 336 606 z "},"R":{"ha":1567,"x_min":95,"x_max":1472,"o":"m 407 654 l 1110 654 q 1193 686 1159 654 q 1228 763 1228 718 q 1193 839 1228 806 q 1110 872 1159 872 l 335 872 l 335 109 q 300 32 335 63 q 215 0 265 0 q 130 32 165 0 q 95 109 95 63 l 95 872 q 165 1026 95 962 q 335 1090 235 1090 l 1110 1090 q 1363 995 1258 1090 q 1468 765 1468 899 q 1363 535 1468 631 q 1201 448 1292 471 l 1444 178 q 1472 109 1472 148 q 1436 32 1472 63 q 1351 0 1400 0 q 1258 40 1295 0 l 905 436 l 647 436 q 477 500 548 436 q 407 654 407 564 z "},"S":{"ha":1567,"x_min":95,"x_max":1472,"o":"m 453 1090 l 1231 1090 q 1401 1026 1330 1090 q 1472 872 1472 962 l 453 872 q 370 839 404 872 q 335 763 335 806 q 370 686 335 718 q 453 654 404 654 l 1114 654 q 1366 559 1261 654 q 1472 329 1472 464 q 1366 99 1472 194 q 1114 4 1261 4 l 1114 0 l 335 0 q 166 64 236 0 q 95 218 95 128 l 1114 218 q 1197 250 1162 218 q 1231 327 1231 283 q 1197 403 1231 371 q 1114 436 1162 436 l 1114 440 l 453 440 q 200 535 305 440 q 95 765 95 631 q 200 995 95 899 q 453 1090 305 1090 z "},"T":{"ha":1567,"x_min":95,"x_max":1472,"o":"m 903 862 l 903 109 q 868 32 903 63 q 783 0 833 0 q 698 32 733 0 q 663 109 663 63 l 663 862 l 95 862 l 95 872 q 166 1026 95 962 q 335 1090 236 1090 l 1231 1090 q 1401 1026 1330 1090 q 1472 872 1472 962 l 1472 862 l 903 862 z "},"U":{"ha":1567,"x_min":95,"x_max":1472,"o":"m 874 -6 l 694 -6 q 535 13 612 -6 q 392 68 459 33 q 271 153 326 103 q 177 263 216 203 q 117 393 138 324 q 95 538 95 463 l 95 981 q 130 1058 95 1026 q 215 1090 165 1090 q 300 1058 265 1090 q 335 981 335 1026 l 335 538 q 364 411 335 470 q 441 308 392 352 q 555 238 490 264 q 694 213 620 213 l 874 213 q 1013 238 948 213 q 1126 308 1078 264 q 1203 411 1175 352 q 1231 538 1231 470 l 1231 981 q 1266 1058 1231 1026 q 1351 1090 1301 1090 q 1436 1058 1400 1090 q 1472 981 1472 1026 l 1472 538 q 1450 393 1472 463 q 1390 263 1429 324 q 1297 153 1351 203 q 1176 68 1242 103 q 1033 13 1110 33 q 874 -6 957 -6 z "},"V":{"ha":1567,"x_min":95,"x_max":1472,"o":"m 215 1091 q 321 1035 285 1091 l 783 295 l 1247 1036 q 1351 1091 1281 1091 q 1436 1059 1400 1091 q 1472 982 1472 1027 q 1451 921 1472 948 l 922 74 q 919 73 920 74 l 919 72 q 783 0 874 0 q 647 72 692 0 l 644 73 l 644 74 l 113 927 q 95 982 95 952 q 130 1059 95 1027 q 215 1091 165 1091 z "},"W":{"ha":2317,"x_min":95,"x_max":2222,"o":"m 966 1091 q 1072 1035 1037 1091 l 1535 295 l 1998 1036 l 1999 1036 q 2102 1091 2033 1091 q 2187 1059 2152 1091 q 2222 982 2222 1027 q 2201 921 2222 948 l 1672 74 q 1671 72 1672 74 q 1535 0 1626 0 q 1398 72 1442 0 l 1397 73 l 1397 74 l 863 927 q 847 982 847 952 q 882 1059 847 1027 q 966 1091 917 1091 m 215 1091 q 321 1035 285 1091 l 783 295 l 984 617 l 986 614 q 986 178 1122 396 l 922 74 q 919 73 920 74 l 919 72 q 783 0 874 0 q 647 72 692 0 l 644 73 l 644 74 l 113 927 q 95 982 95 952 q 130 1059 95 1027 q 215 1091 165 1091 z "},"X":{"ha":1579,"x_min":95,"x_max":1483,"o":"m 710 654 l 945 654 l 1267 1046 q 1364 1090 1301 1090 q 1448 1058 1413 1090 q 1483 981 1483 1026 q 1459 916 1483 944 l 1161 552 l 1447 187 q 1483 109 1483 154 q 1448 32 1483 63 q 1364 0 1413 0 q 1269 42 1306 0 l 1267 41 l 957 436 l 950 436 q 781 500 851 436 q 710 654 710 564 m 156 1069 q 244 1089 194 1096 q 324 1047 294 1083 l 590 725 q 654 553 654 647 q 591 381 654 459 l 318 47 l 317 46 q 238 4 288 10 q 149 24 189 -3 q 102 95 110 51 q 124 176 95 140 l 125 177 l 433 553 l 132 915 l 132 916 q 109 996 102 951 q 156 1069 115 1041 z "},"Y":{"ha":1567,"x_min":95,"x_max":1472,"o":"m 1231 866 l 1231 1090 q 1401 1026 1330 1090 q 1472 872 1472 962 l 1472 866 q 1451 725 1472 793 q 1394 598 1431 658 q 1306 490 1358 539 q 1191 405 1254 440 q 1055 348 1128 369 q 903 323 982 326 l 903 109 q 868 32 903 63 q 783 0 833 0 q 698 32 733 0 q 663 109 663 63 l 663 323 q 511 348 584 326 q 376 406 439 369 q 261 491 313 442 q 172 599 209 540 q 115 726 135 658 q 95 866 95 793 l 95 870 q 166 1026 95 962 q 335 1090 236 1090 l 335 866 q 364 740 335 799 q 441 636 392 681 q 555 567 490 592 q 694 541 620 541 l 874 541 q 1013 567 948 541 q 1126 636 1078 592 q 1203 740 1175 681 q 1231 866 1231 799 z "},"Z":{"ha":1567,"x_min":95,"x_max":1472,"o":"m 1351 1090 q 1436 1058 1400 1090 q 1472 981 1472 1026 q 1435 903 1472 934 q 1422 893 1432 901 l 543 218 l 1472 218 q 1401 64 1472 128 q 1231 0 1330 0 l 215 0 q 130 32 165 0 q 95 109 95 63 q 139 193 95 160 l 1023 872 l 95 872 q 166 1026 95 962 q 335 1090 236 1090 l 1351 1090 z "},"[":{"ha":606,"x_min":95,"x_max":493,"o":"m 338 1090 l 493 1090 l 493 872 l 338 872 l 338 218 l 493 218 l 493 0 l 338 0 q 167 64 238 0 q 95 218 97 127 l 95 872 q 167 1026 97 963 q 338 1090 238 1090 z "},"\\":{"ha":990,"x_min":95,"x_max":882,"o":"m 865 163 q 882 108 882 138 q 847 31 882 63 q 762 -1 812 -1 q 656 56 692 -1 l 359 532 l 113 927 q 95 982 95 952 q 130 1059 95 1027 q 215 1091 165 1091 q 321 1035 285 1091 l 618 558 l 865 163 z "},"]":{"ha":606,"x_min":95,"x_max":493,"o":"m 251 1090 q 421 1026 351 1090 q 493 872 492 963 l 493 218 q 421 64 492 127 q 251 0 351 0 l 95 0 l 95 218 l 251 218 l 251 872 l 95 872 l 95 1090 l 251 1090 l 251 1090 z "},"^":{"ha":1272,"x_min":87,"x_max":1185,"o":"m 114 596 q 93 685 87 635 q 135 764 100 735 l 458 1030 q 630 1094 535 1094 q 801 1031 724 1094 l 1136 758 l 1137 758 q 1179 678 1172 728 q 1159 590 1185 629 q 1088 543 1132 550 q 1006 565 1043 535 l 1006 565 l 630 873 l 267 572 l 267 572 q 186 549 231 542 q 114 596 142 556 z "},"_":{"ha":1567,"x_min":95,"x_max":1472,"o":"m 335 228 l 1472 226 q 1401 64 1472 128 q 1231 0 1330 0 l 335 0 q 166 64 236 0 q 95 225 95 128 l 335 228 z "},"a":{"ha":1837,"x_min":95,"x_max":1742,"o":"m 1721 165 q 1742 105 1742 137 q 1708 31 1742 61 q 1626 0 1674 0 q 1529 47 1563 0 l 1397 227 l 442 227 l 307 47 q 211 0 273 0 q 129 31 163 0 q 95 105 95 61 q 116 165 95 137 l 744 1006 q 919 1090 807 1090 q 1094 1006 1032 1090 l 1721 165 m 919 867 l 599 437 l 1240 437 l 919 867 z "},"b":{"ha":1567,"x_min":95,"x_max":1472,"o":"m 95 218 l 95 872 q 166 1026 95 962 q 335 1090 236 1090 l 1114 1090 q 1366 995 1261 1090 q 1472 765 1472 899 q 1379 547 1472 640 q 1447 466 1422 503 q 1472 329 1472 428 q 1367 115 1472 230 q 1115 0 1263 0 l 338 0 q 167 64 238 0 q 95 218 97 127 m 407 654 l 1114 654 q 1197 688 1162 654 q 1231 765 1231 721 q 1197 841 1231 809 q 1114 872 1162 872 l 338 875 l 338 221 l 1114 218 q 1197 251 1162 218 q 1231 329 1231 285 q 1197 407 1231 373 q 1114 440 1162 440 l 644 440 q 477 503 547 440 q 407 654 408 565 z "},"c":{"ha":1563,"x_min":97,"x_max":1467,"o":"m 694 1089 l 1186 1089 q 1372 1026 1292 1089 q 1467 871 1451 963 l 694 871 l 694 1089 m 694 218 l 1467 218 q 1372 63 1451 125 q 1186 0 1292 0 l 694 0 l 694 218 m 336 544 q 364 418 336 477 q 441 314 392 358 q 555 244 490 269 q 694 218 620 218 l 694 0 q 535 19 612 0 q 393 74 459 39 q 272 159 326 109 q 178 269 217 208 q 118 399 139 329 q 97 543 97 468 q 118 688 97 618 q 178 818 139 758 q 272 929 217 879 q 393 1014 326 978 q 535 1069 459 1050 q 694 1089 612 1089 l 694 871 q 555 845 620 871 q 441 775 490 819 q 364 671 392 731 q 336 544 336 612 z "},"d":{"ha":1567,"x_min":95,"x_max":1473,"o":"m 875 0 l 647 0 q 477 64 548 0 q 407 218 407 128 l 875 218 l 875 0 m 875 871 l 335 871 l 335 108 q 300 30 335 62 q 215 -1 265 -1 q 130 30 165 -1 q 95 108 95 62 l 95 871 q 165 1025 95 960 q 335 1089 235 1089 l 875 1089 l 875 871 m 1233 544 q 1205 671 1233 612 q 1128 775 1177 731 q 1015 845 1080 819 q 875 871 949 871 l 875 1089 q 1034 1069 958 1089 q 1177 1015 1110 1050 q 1298 930 1243 980 q 1392 820 1353 881 q 1452 690 1431 760 q 1473 546 1473 621 q 1452 401 1473 471 q 1392 270 1431 331 q 1298 160 1353 210 q 1177 75 1243 110 q 1034 19 1110 39 q 875 0 958 0 l 875 218 q 1015 244 949 218 q 1128 314 1080 270 q 1205 418 1177 358 q 1233 544 1233 477 z "},"e":{"ha":1563,"x_min":95,"x_max":1467,"o":"m 338 1090 l 1186 1090 q 1372 1027 1292 1090 q 1467 872 1451 965 l 338 872 l 338 654 l 1161 654 q 1091 500 1161 564 q 922 436 1021 436 l 338 436 l 338 218 l 1467 218 q 1372 63 1451 125 q 1186 0 1292 0 l 338 0 q 167 64 238 0 q 95 218 97 127 l 95 872 q 167 1026 97 963 q 338 1090 238 1090 z "},"f":{"ha":1563,"x_min":95,"x_max":1467,"o":"m 338 109 q 302 32 338 63 q 217 0 266 0 q 131 32 167 0 q 95 109 95 63 l 95 872 q 167 1026 97 963 q 338 1090 238 1090 l 1186 1090 q 1372 1027 1292 1090 q 1467 872 1451 965 l 338 872 l 338 654 l 1161 654 q 1091 500 1161 564 q 922 436 1021 436 l 338 436 l 338 109 z "},"g":{"ha":1567,"x_min":97,"x_max":1472,"o":"m 694 1089 l 1231 1089 q 1401 1025 1330 1089 q 1472 871 1472 960 l 694 871 l 694 1089 m 694 218 l 1112 218 q 1196 250 1160 218 q 1231 327 1231 282 q 1196 404 1231 372 q 1112 436 1160 436 l 692 436 q 523 500 593 436 q 452 654 452 564 l 1112 654 q 1366 558 1260 654 q 1472 327 1472 463 q 1366 96 1472 192 q 1112 0 1260 0 l 694 0 l 694 218 m 336 544 q 364 418 336 477 q 441 314 392 358 q 555 244 490 269 q 694 218 620 218 l 694 0 q 535 19 612 0 q 393 74 459 39 q 272 159 326 109 q 178 269 217 208 q 118 399 139 329 q 97 543 97 468 q 118 688 97 618 q 178 818 139 758 q 272 929 217 879 q 393 1014 326 978 q 535 1069 459 1050 q 694 1089 612 1089 l 694 871 q 555 845 620 871 q 441 775 490 819 q 364 671 392 731 q 336 544 336 612 z "},"h":{"ha":1567,"x_min":95,"x_max":1472,"o":"m 1351 1090 q 1436 1058 1400 1090 q 1472 981 1472 1026 l 1472 109 q 1436 32 1472 63 q 1351 0 1400 0 q 1266 32 1301 0 q 1231 109 1231 63 l 1231 436 l 647 436 q 477 500 548 436 q 407 654 407 564 l 1231 654 l 1231 981 q 1266 1058 1231 1026 q 1351 1090 1301 1090 m 215 1090 q 300 1058 265 1090 q 335 981 335 1026 l 335 109 q 300 32 335 63 q 215 0 265 0 q 130 32 165 0 q 95 109 95 63 l 95 981 q 130 1058 95 1026 q 215 1090 165 1090 z "},"i":{"ha":431,"x_min":95,"x_max":335,"o":"m 215 1090 q 300 1058 265 1090 q 335 981 335 1026 l 335 109 q 300 32 335 63 q 215 0 265 0 q 130 32 165 0 q 95 109 95 63 l 95 981 q 130 1058 95 1026 q 215 1090 165 1090 z "},"j":{"ha":1567,"x_min":95,"x_max":1472,"o":"m 1231 538 l 1231 981 q 1266 1058 1231 1026 q 1351 1090 1301 1090 q 1436 1058 1400 1090 q 1472 981 1472 1026 l 1472 538 q 1450 393 1472 463 q 1390 263 1429 324 q 1297 153 1351 203 q 1177 68 1243 103 q 1034 14 1110 33 q 875 -6 958 -6 l 335 -6 q 166 58 236 -6 q 95 213 95 122 l 874 213 q 1013 238 948 213 q 1126 308 1078 264 q 1203 411 1175 352 q 1231 538 1231 470 z "},"k":{"ha":1567,"x_min":95,"x_max":1472,"o":"m 407 654 l 933 654 l 1254 1046 q 1351 1090 1290 1090 q 1436 1058 1400 1090 q 1472 981 1472 1026 q 1447 916 1472 944 l 1148 552 l 1435 187 q 1472 109 1472 154 q 1436 32 1472 63 q 1351 0 1400 0 q 1257 42 1293 0 l 1255 41 l 945 436 l 647 436 q 477 500 548 436 q 407 654 407 564 m 215 1090 q 300 1058 265 1090 q 335 981 335 1026 l 335 109 q 300 32 335 63 q 215 0 265 0 q 130 32 165 0 q 95 109 95 63 l 95 981 q 130 1058 95 1026 q 215 1090 165 1090 z "},"l":{"ha":1567,"x_min":95,"x_max":1472,"o":"m 215 1090 q 300 1058 265 1090 q 335 981 335 1026 l 335 218 l 1472 218 q 1401 64 1472 128 q 1231 0 1330 0 l 335 0 q 166 64 236 0 q 95 218 95 128 l 95 981 q 130 1058 95 1026 q 215 1090 165 1090 z "},"m":{"ha":1794,"x_min":95,"x_max":1699,"o":"m 1579 1090 q 1664 1058 1628 1090 q 1699 981 1699 1026 l 1699 109 q 1664 32 1699 63 q 1579 0 1628 0 q 1494 32 1529 0 q 1459 109 1459 63 l 1459 646 l 1028 106 q 897 46 979 46 q 767 106 815 46 l 335 646 l 335 109 q 300 32 335 63 q 215 0 265 0 q 130 32 165 0 q 95 109 95 63 l 95 981 q 130 1058 95 1026 q 215 1090 165 1090 q 313 1045 276 1090 l 313 1044 l 897 314 l 1481 1044 l 1482 1045 q 1579 1090 1518 1090 z "},"n":{"ha":1567,"x_min":95,"x_max":1472,"o":"m 215 1090 q 292 1065 258 1090 l 1231 344 l 1231 981 q 1266 1058 1231 1026 q 1351 1090 1301 1090 q 1436 1058 1400 1090 q 1472 981 1472 1026 l 1472 109 q 1436 32 1472 63 q 1351 0 1400 0 q 1274 26 1308 0 l 335 747 l 335 109 q 300 32 335 63 q 215 0 265 0 q 130 32 165 0 q 95 109 95 63 l 95 981 q 130 1058 95 1026 q 215 1090 165 1090 z "},"o":{"ha":1551,"x_min":97,"x_max":1472,"o":"m 694 1082 l 874 1082 q 1033 1063 957 1082 q 1176 1008 1110 1043 q 1297 923 1242 972 q 1391 813 1352 873 q 1451 682 1430 752 q 1472 538 1472 613 q 1451 393 1472 463 q 1391 263 1430 324 q 1297 153 1352 203 q 1176 68 1242 103 q 1033 13 1110 33 q 874 -6 957 -6 l 694 -6 q 535 13 612 -6 q 393 68 459 33 q 272 153 326 103 q 178 263 217 203 q 118 393 139 324 q 97 538 97 463 q 118 682 97 613 q 178 813 139 752 q 272 923 217 873 q 393 1008 326 972 q 535 1063 459 1043 q 694 1082 612 1082 m 336 539 q 364 412 336 472 q 441 308 392 353 q 555 238 490 264 q 694 213 620 213 l 874 213 q 1014 238 949 213 q 1128 308 1079 264 q 1205 412 1176 353 q 1233 539 1233 472 q 1205 666 1233 606 q 1128 769 1176 725 q 1014 839 1079 813 q 874 865 949 865 l 694 865 q 555 839 620 865 q 441 769 490 813 q 364 666 392 725 q 336 539 336 606 z "},"p":{"ha":1567,"x_min":95,"x_max":1468,"o":"m 407 654 l 1110 654 q 1193 686 1159 654 q 1228 763 1228 718 q 1193 839 1228 806 q 1110 872 1159 872 l 335 872 l 335 109 q 300 32 335 63 q 215 0 265 0 q 130 32 165 0 q 95 109 95 63 l 95 872 q 165 1026 95 962 q 335 1090 235 1090 l 1110 1090 q 1363 995 1258 1090 q 1468 765 1468 899 q 1363 535 1468 631 q 1110 436 1258 440 l 647 436 q 477 500 548 436 q 407 654 407 564 z "},"q":{"ha":1567,"x_min":97,"x_max":1472,"o":"m 694 1082 l 874 1082 q 1033 1063 957 1082 q 1176 1008 1110 1043 q 1297 923 1242 972 q 1391 813 1352 873 q 1451 682 1430 752 q 1472 538 1472 613 q 1447 380 1472 455 q 1376 241 1422 306 l 1436 186 q 1472 109 1472 154 q 1436 32 1472 63 q 1351 0 1400 0 q 1267 32 1301 0 l 1207 85 q 1051 18 1135 42 q 874 -6 967 -6 l 694 -6 q 535 13 612 -6 q 393 68 459 33 q 272 153 326 103 q 178 263 217 203 q 118 393 139 324 q 97 538 97 463 q 118 682 97 613 q 178 813 139 752 q 272 923 217 873 q 393 1008 326 972 q 535 1063 459 1043 q 694 1082 612 1082 m 336 539 q 364 412 336 472 q 441 308 392 353 q 555 238 490 264 q 694 213 620 213 l 874 213 q 956 221 917 213 q 1031 245 995 229 l 842 417 q 772 572 772 481 q 842 726 772 662 l 1199 401 q 1224 467 1215 433 q 1233 539 1233 501 q 1205 666 1233 606 q 1128 769 1176 725 q 1014 839 1079 813 q 874 865 949 865 l 694 865 q 555 839 620 865 q 441 769 490 813 q 364 666 392 725 q 336 539 336 606 z "},"r":{"ha":1567,"x_min":95,"x_max":1472,"o":"m 407 654 l 1110 654 q 1193 686 1159 654 q 1228 763 1228 718 q 1193 839 1228 806 q 1110 872 1159 872 l 335 872 l 335 109 q 300 32 335 63 q 215 0 265 0 q 130 32 165 0 q 95 109 95 63 l 95 872 q 165 1026 95 962 q 335 1090 235 1090 l 1110 1090 q 1363 995 1258 1090 q 1468 765 1468 899 q 1363 535 1468 631 q 1201 448 1292 471 l 1444 178 q 1472 109 1472 148 q 1436 32 1472 63 q 1351 0 1400 0 q 1258 40 1295 0 l 905 436 l 647 436 q 477 500 548 436 q 407 654 407 564 z "},"s":{"ha":1567,"x_min":95,"x_max":1472,"o":"m 453 1090 l 1231 1090 q 1401 1026 1330 1090 q 1472 872 1472 962 l 453 872 q 370 839 404 872 q 335 763 335 806 q 370 686 335 718 q 453 654 404 654 l 1114 654 q 1366 559 1261 654 q 1472 329 1472 464 q 1366 99 1472 194 q 1114 4 1261 4 l 1114 0 l 335 0 q 166 64 236 0 q 95 218 95 128 l 1114 218 q 1197 250 1162 218 q 1231 327 1231 283 q 1197 403 1231 371 q 1114 436 1162 436 l 1114 440 l 453 440 q 200 535 305 440 q 95 765 95 631 q 200 995 95 899 q 453 1090 305 1090 z "},"t":{"ha":1567,"x_min":95,"x_max":1472,"o":"m 903 862 l 903 109 q 868 32 903 63 q 783 0 833 0 q 698 32 733 0 q 663 109 663 63 l 663 862 l 95 862 l 95 872 q 166 1026 95 962 q 335 1090 236 1090 l 1231 1090 q 1401 1026 1330 1090 q 1472 872 1472 962 l 1472 862 l 903 862 z "},"u":{"ha":1567,"x_min":95,"x_max":1472,"o":"m 874 -6 l 694 -6 q 535 13 612 -6 q 392 68 459 33 q 271 153 326 103 q 177 263 216 203 q 117 393 138 324 q 95 538 95 463 l 95 981 q 130 1058 95 1026 q 215 1090 165 1090 q 300 1058 265 1090 q 335 981 335 1026 l 335 538 q 364 411 335 470 q 441 308 392 352 q 555 238 490 264 q 694 213 620 213 l 874 213 q 1013 238 948 213 q 1126 308 1078 264 q 1203 411 1175 352 q 1231 538 1231 470 l 1231 981 q 1266 1058 1231 1026 q 1351 1090 1301 1090 q 1436 1058 1400 1090 q 1472 981 1472 1026 l 1472 538 q 1450 393 1472 463 q 1390 263 1429 324 q 1297 153 1351 203 q 1176 68 1242 103 q 1033 13 1110 33 q 874 -6 957 -6 z "},"v":{"ha":1567,"x_min":95,"x_max":1472,"o":"m 215 1091 q 321 1035 285 1091 l 783 295 l 1247 1036 q 1351 1091 1281 1091 q 1436 1059 1400 1091 q 1472 982 1472 1027 q 1451 921 1472 948 l 922 74 q 919 73 920 74 l 919 72 q 783 0 874 0 q 647 72 692 0 l 644 73 l 644 74 l 113 927 q 95 982 95 952 q 130 1059 95 1027 q 215 1091 165 1091 z "},"w":{"ha":2317,"x_min":95,"x_max":2222,"o":"m 966 1091 q 1072 1035 1037 1091 l 1535 295 l 1998 1036 l 1999 1036 q 2102 1091 2033 1091 q 2187 1059 2152 1091 q 2222 982 2222 1027 q 2201 921 2222 948 l 1672 74 q 1671 72 1672 74 q 1535 0 1626 0 q 1398 72 1442 0 l 1397 73 l 1397 74 l 863 927 q 847 982 847 952 q 882 1059 847 1027 q 966 1091 917 1091 m 215 1091 q 321 1035 285 1091 l 783 295 l 984 617 l 986 614 q 986 178 1122 396 l 922 74 q 919 73 920 74 l 919 72 q 783 0 874 0 q 647 72 692 0 l 644 73 l 644 74 l 113 927 q 95 982 95 952 q 130 1059 95 1027 q 215 1091 165 1091 z "},"x":{"ha":1579,"x_min":95,"x_max":1483,"o":"m 710 654 l 945 654 l 1267 1046 q 1364 1090 1301 1090 q 1448 1058 1413 1090 q 1483 981 1483 1026 q 1459 916 1483 944 l 1161 552 l 1447 187 q 1483 109 1483 154 q 1448 32 1483 63 q 1364 0 1413 0 q 1269 42 1306 0 l 1267 41 l 957 436 l 950 436 q 781 500 851 436 q 710 654 710 564 m 156 1069 q 244 1089 194 1096 q 324 1047 294 1083 l 590 725 q 654 553 654 647 q 591 381 654 459 l 318 47 l 317 46 q 238 4 288 10 q 149 24 189 -3 q 102 95 110 51 q 124 176 95 140 l 125 177 l 433 553 l 132 915 l 132 916 q 109 996 102 951 q 156 1069 115 1041 z "},"y":{"ha":1567,"x_min":95,"x_max":1472,"o":"m 1231 866 l 1231 1090 q 1401 1026 1330 1090 q 1472 872 1472 962 l 1472 866 q 1451 725 1472 793 q 1394 598 1431 658 q 1306 490 1358 539 q 1191 405 1254 440 q 1055 348 1128 369 q 903 323 982 326 l 903 109 q 868 32 903 63 q 783 0 833 0 q 698 32 733 0 q 663 109 663 63 l 663 323 q 511 348 584 326 q 376 406 439 369 q 261 491 313 442 q 172 599 209 540 q 115 726 135 658 q 95 866 95 793 l 95 870 q 166 1026 95 962 q 335 1090 236 1090 l 335 866 q 364 740 335 799 q 441 636 392 681 q 555 567 490 592 q 694 541 620 541 l 874 541 q 1013 567 948 541 q 1126 636 1078 592 q 1203 740 1175 681 q 1231 866 1231 799 z "},"z":{"ha":1567,"x_min":95,"x_max":1472,"o":"m 1351 1090 q 1436 1058 1400 1090 q 1472 981 1472 1026 q 1435 903 1472 934 q 1422 893 1432 901 l 543 218 l 1472 218 q 1401 64 1472 128 q 1231 0 1330 0 l 215 0 q 130 32 165 0 q 95 109 95 63 q 139 193 95 160 l 1023 872 l 95 872 q 166 1026 95 962 q 335 1090 236 1090 l 1351 1090 z "},"{":{"ha":764,"x_min":98,"x_max":651,"o":"m 253 872 q 325 1026 254 963 q 495 1090 395 1090 l 651 1090 l 651 872 l 495 872 l 496 751 q 424 597 494 660 q 363 556 396 571 q 424 515 396 540 q 496 360 494 451 l 496 224 l 495 224 l 495 218 l 651 218 l 651 0 l 495 0 q 325 64 395 0 q 253 218 254 127 l 253 451 l 98 451 l 98 673 l 253 673 l 253 872 z "},"|":{"ha":431,"x_min":95,"x_max":335,"o":"m 215 1090 q 300 1058 265 1090 q 335 981 335 1026 l 335 109 q 300 32 335 63 q 215 0 265 0 q 130 32 165 0 q 95 109 95 63 l 95 981 q 130 1058 95 1026 q 215 1090 165 1090 z "},"}":{"ha":764,"x_min":98,"x_max":651,"o":"m 495 673 l 651 673 l 651 451 l 495 451 l 496 218 q 424 64 494 127 q 253 0 353 0 l 98 0 l 98 218 l 253 218 l 253 224 l 253 224 l 253 360 q 324 515 254 451 q 385 556 353 540 q 324 597 353 571 q 253 751 254 660 l 253 872 l 98 872 l 98 1090 l 253 1090 q 424 1026 353 1090 q 496 872 494 963 l 495 673 z "},"¶":{"ha":1303,"x_min":69,"x_max":1217,"o":"m 69 765 q 94 892 69 833 q 164 995 120 951 q 267 1065 208 1039 q 394 1090 326 1090 l 976 1090 q 1146 1026 1076 1090 q 1217 872 1217 963 l 1217 109 q 1182 32 1217 64 q 1097 0 1147 0 q 1011 32 1047 0 q 976 109 976 64 l 976 863 l 634 863 l 634 109 q 599 32 634 64 q 514 0 565 0 q 430 32 465 0 q 394 109 394 64 l 394 440 q 267 466 326 440 q 164 536 208 492 q 94 639 120 580 q 69 765 69 698 z "},"À":{"ha":1837,"x_min":95,"x_max":1742,"o":"m 1721 165 q 1742 105 1742 137 q 1708 31 1742 61 q 1626 0 1674 0 q 1529 47 1563 0 l 1397 227 l 442 227 l 307 47 q 211 0 273 0 q 129 31 163 0 q 95 105 95 61 q 116 165 95 137 l 744 1006 q 919 1090 807 1090 q 1094 1006 1032 1090 l 1721 165 m 919 867 l 599 437 l 1240 437 l 919 867 m 480 1084 l 480 763 q 310 826 381 763 q 240 981 240 890 l 240 1084 l 480 1084 z "},"Á":{"ha":1837,"x_min":95,"x_max":1742,"o":"m 1721 165 q 1742 105 1742 137 q 1708 31 1742 61 q 1626 0 1674 0 q 1529 47 1563 0 l 1397 227 l 442 227 l 307 47 q 211 0 273 0 q 129 31 163 0 q 95 105 95 61 q 116 165 95 137 l 744 1006 q 919 1090 807 1090 q 1094 1006 1032 1090 l 1721 165 m 919 867 l 599 437 l 1240 437 l 919 867 m 1616 1094 l 1616 990 q 1545 836 1616 900 q 1376 772 1475 772 l 1376 1094 l 1616 1094 z "},"Â":{"ha":1837,"x_min":95,"x_max":1742,"o":"m 1436 851 l 1210 851 l 1721 165 q 1742 105 1742 137 q 1708 31 1742 61 q 1626 0 1674 0 q 1529 47 1563 0 l 1397 227 l 442 227 l 307 47 q 211 0 273 0 q 129 31 163 0 q 95 105 95 61 q 116 165 95 137 l 628 851 l 413 851 q 476 1020 413 950 q 631 1091 540 1091 l 1218 1091 q 1372 1020 1308 1091 q 1436 851 1436 950 m 1240 437 l 931 851 l 906 851 l 599 437 l 1240 437 z "},"Ã":{"ha":1837,"x_min":95,"x_max":1742,"o":"m 410 1091 l 1216 1091 q 1370 1020 1306 1091 q 1434 851 1434 950 l 1210 851 l 1721 165 q 1742 105 1742 137 q 1708 31 1742 61 q 1626 0 1674 0 q 1529 47 1563 0 l 1397 227 l 442 227 l 307 47 q 211 0 273 0 q 129 31 163 0 q 95 105 95 61 q 116 165 95 137 l 628 851 q 474 921 538 851 q 410 1091 410 992 m 1240 437 l 931 851 l 906 851 l 599 437 l 1240 437 z "},"Ä":{"ha":1837,"x_min":95,"x_max":1742,"o":"m 1721 165 q 1742 105 1742 137 q 1708 31 1742 61 q 1626 0 1674 0 q 1529 47 1563 0 l 1397 227 l 442 227 l 307 47 q 211 0 273 0 q 129 31 163 0 q 95 105 95 61 q 116 165 95 137 l 744 1006 q 919 1090 807 1090 q 1094 1006 1032 1090 l 1721 165 m 919 867 l 599 437 l 1240 437 l 919 867 m 256 959 q 267 1011 256 987 q 298 1053 278 1035 q 345 1082 318 1072 q 401 1092 372 1092 q 458 1082 431 1092 q 505 1053 485 1072 q 536 1011 525 1035 q 548 959 548 987 q 536 908 548 932 q 505 866 525 883 q 458 838 485 848 q 401 827 431 827 q 345 838 372 827 q 298 866 318 848 q 267 908 278 883 q 256 959 256 932 m 1270 963 q 1282 1015 1270 991 q 1313 1058 1293 1040 q 1359 1086 1333 1076 q 1416 1097 1386 1097 q 1473 1086 1446 1097 q 1519 1058 1499 1076 q 1551 1015 1540 1040 q 1563 963 1563 991 q 1551 912 1563 936 q 1519 870 1540 888 q 1473 842 1499 852 q 1416 831 1446 831 q 1359 842 1386 831 q 1313 870 1333 852 q 1282 912 1293 888 q 1270 963 1270 936 z "},"Å":{"ha":1837,"x_min":95,"x_max":1742,"o":"m 1286 765 q 1286 757 1286 761 q 1285 749 1285 753 l 1721 165 q 1742 105 1742 137 q 1708 31 1742 61 q 1626 0 1674 0 q 1529 47 1563 0 l 1472 122 l 365 122 l 307 47 q 211 0 273 0 q 129 31 163 0 q 95 105 95 61 q 116 165 95 137 l 537 729 q 535 765 535 747 q 550 851 535 810 q 592 929 565 893 q 656 995 619 965 q 733 1046 692 1024 q 820 1079 775 1067 q 910 1090 865 1090 q 1000 1079 955 1090 q 1088 1046 1046 1067 q 1165 995 1129 1024 q 1228 929 1201 965 q 1271 851 1256 893 q 1286 765 1286 810 m 910 440 q 782 463 846 440 q 666 527 719 486 l 522 331 l 1315 331 l 1165 535 q 1044 466 1110 491 q 910 440 978 440 m 1072 764 q 1056 805 1072 785 q 1016 839 1040 824 q 965 861 992 853 q 917 869 938 869 q 867 861 894 869 q 817 839 840 853 q 777 805 793 824 q 760 764 760 785 q 777 723 760 742 q 817 690 793 703 q 867 667 840 676 q 917 659 894 659 q 965 667 938 659 q 1016 690 992 676 q 1056 723 1040 703 q 1072 764 1072 742 z "},"Æ":{"ha":2010,"x_min":95,"x_max":1912,"o":"m 1631 1090 q 1816 1027 1737 1090 q 1912 872 1896 965 l 1160 872 l 1160 654 l 1606 654 q 1535 500 1606 564 q 1366 436 1465 436 l 1160 436 l 1160 218 l 1912 218 q 1816 63 1896 125 q 1631 0 1737 0 l 1160 0 q 990 64 1060 0 q 918 218 919 127 l 918 227 l 442 227 l 307 47 q 211 0 273 0 q 129 31 163 0 q 95 105 95 61 q 116 165 95 137 l 744 1006 q 919 1090 807 1090 l 919 1087 q 1631 1090 1063 1090 m 918 437 l 918 866 l 599 437 l 918 437 z "},"Ç":{"ha":1563,"x_min":94,"x_max":1467,"o":"m 550 441 l 1467 441 q 1372 288 1451 348 q 1186 227 1292 227 l 996 227 l 996 215 q 925 56 996 120 q 756 -8 855 -8 l 756 227 l 550 227 q 372 262 455 228 q 227 355 289 297 q 130 492 165 414 q 94 658 94 569 q 110 772 94 717 q 156 874 126 826 q 227 961 185 922 q 319 1029 269 1001 q 428 1073 370 1057 q 550 1090 487 1089 l 550 1090 l 1186 1090 q 1372 1027 1292 1090 q 1467 872 1451 965 l 550 872 l 550 874 q 467 856 506 873 q 399 809 428 838 q 353 741 370 780 q 337 657 337 701 q 353 573 337 613 q 399 505 370 534 q 467 459 428 476 q 550 441 506 442 z "},"È":{"ha":1563,"x_min":95,"x_max":1467,"o":"m 338 1090 l 1186 1090 q 1372 1027 1292 1090 q 1467 872 1451 965 l 338 872 l 338 654 l 923 654 q 853 500 923 564 q 683 436 783 436 l 338 436 l 338 218 l 1467 218 q 1372 63 1451 125 q 1186 0 1292 0 l 338 0 q 167 64 238 0 q 95 218 97 127 l 95 872 q 167 1026 97 963 q 338 1090 238 1090 m 1322 806 l 1322 484 q 1152 548 1223 484 q 1082 702 1082 612 l 1082 806 l 1322 806 z "},"É":{"ha":1563,"x_min":95,"x_max":1467,"o":"m 338 1090 l 1186 1090 q 1372 1027 1292 1090 q 1467 872 1451 965 l 338 872 l 338 654 l 923 654 q 853 500 923 564 q 683 436 783 436 l 338 436 l 338 218 l 1467 218 q 1372 63 1451 125 q 1186 0 1292 0 l 338 0 q 167 64 238 0 q 95 218 97 127 l 95 872 q 167 1026 97 963 q 338 1090 238 1090 m 1322 806 l 1322 702 q 1252 548 1322 612 q 1082 484 1181 484 l 1082 806 l 1322 806 z "},"Ê":{"ha":1563,"x_min":95,"x_max":1467,"o":"m 692 1090 l 1186 1090 q 1372 1027 1292 1090 q 1467 872 1451 965 l 338 872 l 338 654 l 1161 654 q 1091 500 1161 564 q 922 436 1021 436 l 338 436 l 338 218 l 1467 218 q 1372 63 1451 125 q 1186 0 1292 0 l 338 0 q 167 64 238 0 q 95 218 97 127 l 95 872 q 167 1026 97 963 q 338 1090 238 1090 l 415 1090 l 415 892 q 506 1027 435 971 q 692 1090 586 1090 z "},"Ë":{"ha":1563,"x_min":95,"x_max":1467,"o":"m 338 1090 l 555 1090 q 741 1027 661 1090 q 836 872 820 965 l 338 872 l 338 654 l 1161 654 q 1091 500 1161 564 q 922 436 1021 436 l 338 436 l 338 218 l 1467 218 q 1372 63 1451 125 q 1186 0 1292 0 l 338 0 q 167 64 238 0 q 95 218 97 127 l 95 872 q 167 1026 97 963 q 338 1090 238 1090 m 1163 964 q 1175 1016 1163 992 q 1206 1058 1186 1040 q 1252 1087 1226 1076 q 1309 1097 1279 1097 q 1366 1087 1339 1097 q 1413 1058 1392 1076 q 1444 1016 1433 1040 q 1456 964 1456 992 q 1444 913 1456 937 q 1413 870 1433 888 q 1366 842 1392 853 q 1309 832 1339 832 q 1252 842 1279 832 q 1206 870 1226 853 q 1175 913 1186 888 q 1163 964 1163 937 m 837 956 q 848 1008 837 983 q 880 1050 860 1032 q 926 1078 899 1068 q 983 1089 953 1089 q 1039 1078 1013 1089 q 1086 1050 1066 1068 q 1118 1008 1106 1032 q 1129 956 1129 983 q 1118 904 1129 928 q 1086 862 1106 880 q 1039 834 1066 844 q 983 824 1013 824 q 926 834 953 824 q 880 862 899 844 q 848 904 860 880 q 837 956 837 928 z "},"Ì":{"ha":431,"x_min":94,"x_max":335,"o":"m 215 783 q 300 751 265 783 q 335 674 335 719 l 335 109 q 300 32 335 63 q 215 0 265 0 q 130 32 165 0 q 95 109 95 63 l 95 674 q 130 751 95 719 q 215 783 165 783 m 331 1100 l 331 826 q 164 889 233 826 q 94 1040 94 951 l 94 1100 l 331 1100 z "},"Í":{"ha":431,"x_min":94,"x_max":335,"o":"m 215 783 q 300 751 265 783 q 335 674 335 719 l 335 109 q 300 32 335 63 q 215 0 265 0 q 130 32 165 0 q 95 109 95 63 l 95 674 q 130 751 95 719 q 215 783 165 783 m 331 1100 l 331 1040 q 261 889 331 951 q 94 826 192 826 l 94 1100 l 331 1100 z "},"Î":{"ha":431,"x_min":-31,"x_max":460,"o":"m 215 783 q 300 751 265 783 q 335 674 335 719 l 335 109 q 300 32 335 63 q 215 0 265 0 q 130 32 165 0 q 95 109 95 63 l 95 674 q 130 751 95 719 q 215 783 165 783 m 460 862 l -31 862 q 32 1029 -31 960 q 184 1098 95 1098 l 245 1098 q 397 1029 334 1098 q 460 862 460 960 z "},"Ï":{"ha":612,"x_min":5,"x_max":624,"o":"m 310 783 q 395 751 360 783 q 430 674 430 719 l 430 109 q 395 32 430 63 q 310 0 360 0 q 225 32 260 0 q 190 109 190 63 l 190 674 q 225 751 190 719 q 310 783 260 783 m 5 956 q 16 1008 5 983 q 48 1050 28 1032 q 94 1078 67 1068 q 151 1089 121 1089 q 207 1078 181 1089 q 254 1050 234 1068 q 286 1008 274 1032 q 297 956 297 983 q 286 904 297 928 q 254 862 274 880 q 207 834 234 844 q 151 824 181 824 q 94 834 121 824 q 48 862 67 844 q 16 904 28 880 q 5 956 5 928 m 331 964 q 343 1016 331 992 q 374 1058 354 1040 q 420 1087 394 1076 q 477 1097 447 1097 q 534 1087 507 1097 q 581 1058 560 1076 q 612 1016 601 1040 q 624 964 624 992 q 612 913 624 937 q 581 870 601 888 q 534 842 560 853 q 477 832 507 832 q 420 842 447 832 q 374 870 394 853 q 343 913 354 888 q 331 964 331 937 z "},"Ð":{"ha":1567,"x_min":43,"x_max":1473,"o":"m 43 545 q 75 624 43 592 q 152 656 107 656 l 224 656 l 224 871 q 294 1025 224 960 q 465 1089 365 1089 l 875 1089 q 1034 1069 958 1089 q 1177 1015 1110 1050 q 1298 930 1243 980 q 1392 820 1353 881 q 1452 690 1431 760 q 1473 546 1473 621 q 1452 401 1473 471 q 1392 270 1431 331 q 1298 160 1353 210 q 1177 75 1243 110 q 1034 19 1110 39 q 875 0 958 0 l 776 0 q 607 64 677 0 q 536 218 536 128 l 875 218 q 1015 244 949 218 q 1128 314 1080 270 q 1205 418 1177 358 q 1233 544 1233 477 q 1205 671 1233 612 q 1128 775 1177 731 q 1015 845 1080 819 q 875 871 949 871 l 465 871 l 465 656 l 619 656 q 696 624 665 656 q 728 545 728 592 q 696 466 728 499 q 619 434 665 434 l 465 434 l 465 108 q 430 30 465 62 q 344 -1 394 -1 q 259 30 294 -1 q 224 108 224 62 l 224 434 l 152 434 q 75 466 107 434 q 43 545 43 499 z "},"Ñ":{"ha":1567,"x_min":95,"x_max":1472,"o":"m 215 1090 q 292 1065 258 1090 l 1231 344 l 1231 981 q 1266 1058 1231 1026 q 1351 1090 1301 1090 q 1436 1058 1400 1090 q 1472 981 1472 1026 l 1472 109 q 1436 32 1472 63 q 1351 0 1400 0 q 1274 26 1308 0 l 335 747 l 335 109 q 300 32 335 63 q 215 0 265 0 q 130 32 165 0 q 95 109 95 63 l 95 981 q 130 1058 95 1026 q 215 1090 165 1090 m 520 1092 l 943 1092 q 1097 1021 1033 1092 q 1161 851 1161 951 l 738 851 q 584 922 648 851 q 520 1092 520 992 z "},"Ò":{"ha":1567,"x_min":97,"x_max":1472,"o":"m 903 805 l 903 483 q 733 547 803 483 q 663 701 663 611 l 663 805 l 903 805 m 694 1082 l 874 1082 q 1033 1063 957 1082 q 1176 1008 1110 1043 q 1297 923 1242 972 q 1391 813 1352 873 q 1451 682 1430 752 q 1472 538 1472 613 q 1451 393 1472 463 q 1391 263 1430 324 q 1297 153 1352 203 q 1176 68 1242 103 q 1033 13 1110 33 q 874 -6 957 -6 l 694 -6 q 535 13 612 -6 q 393 68 459 33 q 272 153 326 103 q 178 263 217 203 q 118 393 139 324 q 97 538 97 463 q 118 682 97 613 q 178 813 139 752 q 272 923 217 873 q 393 1008 326 972 q 535 1063 459 1043 q 694 1082 612 1082 m 336 539 q 364 412 336 472 q 441 308 392 353 q 555 238 490 264 q 694 213 620 213 l 874 213 q 1014 238 949 213 q 1128 308 1079 264 q 1205 412 1176 353 q 1233 539 1233 472 q 1205 666 1233 606 q 1128 769 1176 725 q 1014 839 1079 813 q 874 865 949 865 l 694 865 q 555 839 620 865 q 441 769 490 813 q 364 666 392 725 q 336 539 336 606 z "},"Ó":{"ha":1567,"x_min":97,"x_max":1472,"o":"m 903 816 l 903 713 q 832 558 903 622 q 663 494 762 494 l 663 816 l 903 816 m 694 1082 l 874 1082 q 1033 1063 957 1082 q 1176 1008 1110 1043 q 1297 923 1242 972 q 1391 813 1352 873 q 1451 682 1430 752 q 1472 538 1472 613 q 1451 393 1472 463 q 1391 263 1430 324 q 1297 153 1352 203 q 1176 68 1242 103 q 1033 13 1110 33 q 874 -6 957 -6 l 694 -6 q 535 13 612 -6 q 393 68 459 33 q 272 153 326 103 q 178 263 217 203 q 118 393 139 324 q 97 538 97 463 q 118 682 97 613 q 178 813 139 752 q 272 923 217 873 q 393 1008 326 972 q 535 1063 459 1043 q 694 1082 612 1082 m 336 539 q 364 412 336 472 q 441 308 392 353 q 555 238 490 264 q 694 213 620 213 l 874 213 q 1014 238 949 213 q 1128 308 1079 264 q 1205 412 1176 353 q 1233 539 1233 472 q 1205 666 1233 606 q 1128 769 1176 725 q 1014 839 1079 813 q 874 865 949 865 l 694 865 q 555 839 620 865 q 441 769 490 813 q 364 666 392 725 q 336 539 336 606 z "},"Ô":{"ha":1567,"x_min":97,"x_max":1472,"o":"m 465 676 q 476 625 465 649 q 507 583 488 601 q 554 555 527 565 q 610 544 581 544 q 667 555 640 544 q 714 583 694 565 q 745 625 734 601 q 757 676 757 649 q 745 728 757 704 q 714 771 734 753 q 667 799 694 789 q 610 810 640 810 q 554 799 581 810 q 507 771 527 789 q 476 728 488 753 q 465 676 465 704 m 826 672 q 838 620 826 644 q 869 578 849 596 q 916 550 889 560 q 972 540 942 540 q 1029 550 1002 540 q 1076 578 1056 560 q 1107 620 1096 596 q 1119 672 1119 644 q 1107 724 1119 699 q 1076 766 1096 748 q 1029 794 1056 784 q 972 805 1002 805 q 916 794 942 805 q 869 766 889 784 q 838 724 849 748 q 826 672 826 699 m 694 1082 l 874 1082 q 1033 1063 957 1082 q 1176 1008 1110 1043 q 1297 923 1242 972 q 1391 813 1352 873 q 1451 682 1430 752 q 1472 538 1472 613 q 1451 393 1472 463 q 1391 263 1430 324 q 1297 153 1352 203 q 1176 68 1242 103 q 1033 13 1110 33 q 874 -6 957 -6 l 694 -6 q 535 13 612 -6 q 393 68 459 33 q 272 153 326 103 q 178 263 217 203 q 118 393 139 324 q 97 538 97 463 q 118 682 97 613 q 178 813 139 752 q 272 923 217 873 q 393 1008 326 972 q 535 1063 459 1043 q 694 1082 612 1082 m 336 539 q 364 412 336 472 q 441 308 392 353 q 555 238 490 264 q 694 213 620 213 l 874 213 q 1014 238 949 213 q 1128 308 1079 264 q 1205 412 1176 353 q 1233 539 1233 472 q 1205 666 1233 606 q 1128 769 1176 725 q 1014 839 1079 813 q 874 865 949 865 l 694 865 q 555 839 620 865 q 441 769 490 813 q 364 666 392 725 q 336 539 336 606 z "},"Õ":{"ha":1567,"x_min":97,"x_max":1472,"o":"m 552 811 l 904 811 q 1058 741 994 811 q 1122 571 1122 670 l 770 571 q 616 641 680 571 q 552 811 552 712 m 694 1082 l 874 1082 q 1033 1063 957 1082 q 1176 1008 1110 1043 q 1297 923 1242 972 q 1391 813 1352 873 q 1451 682 1430 752 q 1472 538 1472 613 q 1451 393 1472 463 q 1391 263 1430 324 q 1297 153 1352 203 q 1176 68 1242 103 q 1033 13 1110 33 q 874 -6 957 -6 l 694 -6 q 535 13 612 -6 q 393 68 459 33 q 272 153 326 103 q 178 263 217 203 q 118 393 139 324 q 97 538 97 463 q 118 682 97 613 q 178 813 139 752 q 272 923 217 873 q 393 1008 326 972 q 535 1063 459 1043 q 694 1082 612 1082 m 336 539 q 364 412 336 472 q 441 308 392 353 q 555 238 490 264 q 694 213 620 213 l 874 213 q 1014 238 949 213 q 1128 308 1079 264 q 1205 412 1176 353 q 1233 539 1233 472 q 1205 666 1233 606 q 1128 769 1176 725 q 1014 839 1079 813 q 874 865 949 865 l 694 865 q 555 839 620 865 q 441 769 490 813 q 364 666 392 725 q 336 539 336 606 z "},"Ö":{"ha":1567,"x_min":97,"x_max":1472,"o":"m 509 539 q 489 628 482 578 q 531 707 495 678 l 604 762 q 776 826 682 826 q 948 763 870 826 l 1031 706 l 1031 705 q 1073 626 1067 675 q 1053 537 1080 576 q 982 490 1026 497 q 901 512 938 483 l 900 513 l 776 605 l 663 515 l 662 515 q 582 492 626 485 q 509 539 537 499 m 694 1082 l 874 1082 q 1033 1063 957 1082 q 1176 1008 1110 1043 q 1297 923 1242 972 q 1391 813 1352 873 q 1451 682 1430 752 q 1472 538 1472 613 q 1451 393 1472 463 q 1391 263 1430 324 q 1297 153 1352 203 q 1176 68 1242 103 q 1033 13 1110 33 q 874 -6 957 -6 l 694 -6 q 535 13 612 -6 q 393 68 459 33 q 272 153 326 103 q 178 263 217 203 q 118 393 139 324 q 97 538 97 463 q 118 682 97 613 q 178 813 139 752 q 272 923 217 873 q 393 1008 326 972 q 535 1063 459 1043 q 694 1082 612 1082 m 336 539 q 364 412 336 472 q 441 308 392 353 q 555 238 490 264 q 694 213 620 213 l 874 213 q 1014 238 949 213 q 1128 308 1079 264 q 1205 412 1176 353 q 1233 539 1233 472 q 1205 666 1233 606 q 1128 769 1176 725 q 1014 839 1079 813 q 874 865 949 865 l 694 865 q 555 839 620 865 q 441 769 490 813 q 364 666 392 725 q 336 539 336 606 z "},"×":{"ha":772,"x_min":110,"x_max":661,"o":"m 143 303 q 110 382 110 336 q 142 459 110 427 l 228 545 l 142 631 q 110 709 110 664 q 143 788 110 754 q 222 820 176 820 q 299 789 267 821 l 385 702 l 472 789 q 549 820 504 821 q 628 788 594 820 q 661 709 660 754 q 629 631 661 664 l 542 545 l 629 459 q 661 382 661 427 q 627 303 660 336 q 549 270 594 270 q 472 301 503 269 l 385 388 l 299 301 q 222 270 267 269 q 143 303 176 270 z "},"Ø":{"ha":1567,"x_min":97,"x_max":1472,"o":"m 694 1082 l 874 1082 q 927 1080 901 1082 q 978 1073 953 1077 l 992 1095 q 1098 1151 1028 1151 q 1183 1119 1148 1151 q 1218 1042 1218 1088 q 1203 992 1218 1015 q 1314 906 1264 955 q 1399 799 1363 858 q 1453 675 1434 741 q 1472 538 1472 608 q 1451 393 1472 463 q 1391 263 1430 324 q 1297 153 1352 203 q 1176 68 1242 103 q 1033 13 1110 33 q 874 -6 957 -6 l 694 -6 q 633 -3 663 -6 q 574 5 603 -1 l 542 -44 q 458 -77 528 -77 q 373 -45 408 -77 q 338 32 338 -13 q 356 87 338 62 l 356 88 q 249 174 297 125 q 167 280 201 222 q 115 402 133 337 q 97 538 97 467 q 118 682 97 613 q 178 813 139 752 q 272 923 217 873 q 393 1008 326 972 q 535 1063 459 1043 q 694 1082 612 1082 m 874 213 q 1014 238 949 213 q 1128 308 1079 264 q 1205 412 1176 353 q 1233 539 1233 472 q 1222 617 1233 579 q 1193 688 1212 655 q 1147 750 1174 722 q 1086 801 1119 779 l 920 532 l 710 213 l 874 213 m 661 558 l 850 865 l 694 865 q 555 839 620 865 q 441 769 490 813 q 364 666 392 725 q 336 539 336 606 q 346 461 336 499 q 375 390 356 424 q 420 328 394 357 q 479 278 447 300 l 661 558 z "},"Ù":{"ha":1567,"x_min":95,"x_max":1472,"o":"m 903 1094 l 903 772 q 733 836 803 772 q 663 990 663 900 l 663 1094 l 903 1094 m 874 -6 l 694 -6 q 535 13 612 -6 q 392 68 459 33 q 271 153 326 103 q 177 263 216 203 q 117 393 138 324 q 95 538 95 463 l 95 981 q 130 1058 95 1026 q 215 1090 165 1090 q 300 1058 265 1090 q 335 981 335 1026 l 335 538 q 364 411 335 470 q 441 308 392 352 q 555 238 490 264 q 694 213 620 213 l 874 213 q 1013 238 948 213 q 1126 308 1078 264 q 1203 411 1175 352 q 1231 538 1231 470 l 1231 981 q 1266 1058 1231 1026 q 1351 1090 1301 1090 q 1436 1058 1400 1090 q 1472 981 1472 1026 l 1472 538 q 1450 393 1472 463 q 1390 263 1429 324 q 1297 153 1351 203 q 1176 68 1242 103 q 1033 13 1110 33 q 874 -6 957 -6 z "},"Û":{"ha":1567,"x_min":95,"x_max":1472,"o":"m 516 796 q 495 885 489 835 q 538 964 502 935 l 611 1019 q 783 1083 689 1083 q 955 1020 877 1083 l 1038 963 l 1038 962 q 1080 883 1074 932 q 1060 794 1087 833 q 989 747 1033 754 q 908 769 944 740 l 907 769 l 783 862 l 669 772 l 669 772 q 589 749 633 742 q 516 796 544 756 m 874 -6 l 694 -6 q 535 13 612 -6 q 392 68 459 33 q 271 153 326 103 q 177 263 216 203 q 117 393 138 324 q 95 538 95 463 l 95 981 q 130 1058 95 1026 q 215 1090 165 1090 q 300 1058 265 1090 q 335 981 335 1026 l 335 538 q 364 411 335 470 q 441 308 392 352 q 555 238 490 264 q 694 213 620 213 l 874 213 q 1013 238 948 213 q 1126 308 1078 264 q 1203 411 1175 352 q 1231 538 1231 470 l 1231 981 q 1266 1058 1231 1026 q 1351 1090 1301 1090 q 1436 1058 1400 1090 q 1472 981 1472 1026 l 1472 538 q 1450 393 1472 463 q 1390 263 1429 324 q 1297 153 1351 203 q 1176 68 1242 103 q 1033 13 1110 33 q 874 -6 957 -6 z "},"Ü":{"ha":1567,"x_min":95,"x_max":1472,"o":"m 419 956 q 430 1008 419 983 q 461 1050 442 1032 q 508 1078 481 1068 q 565 1089 535 1089 q 621 1078 594 1089 q 668 1050 648 1068 q 700 1008 688 1032 q 711 956 711 983 q 700 904 711 928 q 668 862 688 880 q 621 834 648 844 q 565 824 594 824 q 508 834 535 824 q 461 862 481 844 q 430 904 442 880 q 419 956 419 928 m 860 964 q 872 1016 860 992 q 903 1058 883 1040 q 950 1087 923 1076 q 1006 1097 976 1097 q 1063 1087 1036 1097 q 1110 1058 1090 1076 q 1141 1016 1130 1040 q 1153 964 1153 992 q 1141 913 1153 937 q 1110 870 1130 888 q 1063 842 1090 853 q 1006 832 1036 832 q 950 842 976 832 q 903 870 923 853 q 872 913 883 888 q 860 964 860 937 m 874 -6 l 694 -6 q 535 13 612 -6 q 392 68 459 33 q 271 153 326 103 q 177 263 216 203 q 117 393 138 324 q 95 538 95 463 l 95 981 q 130 1058 95 1026 q 215 1090 165 1090 q 300 1058 265 1090 q 335 981 335 1026 l 335 538 q 364 411 335 470 q 441 308 392 352 q 555 238 490 264 q 694 213 620 213 l 874 213 q 1013 238 948 213 q 1126 308 1078 264 q 1203 411 1175 352 q 1231 538 1231 470 l 1231 981 q 1266 1058 1231 1026 q 1351 1090 1301 1090 q 1436 1058 1400 1090 q 1472 981 1472 1026 l 1472 538 q 1450 393 1472 463 q 1390 263 1429 324 q 1297 153 1351 203 q 1176 68 1242 103 q 1033 13 1110 33 q 874 -6 957 -6 z "},"Ý":{"ha":1567,"x_min":95,"x_max":1472,"o":"m 903 1094 l 903 990 q 832 836 903 900 q 663 772 762 772 l 663 1094 l 903 1094 m 1231 866 l 1231 1090 q 1401 1026 1330 1090 q 1472 872 1472 962 l 1472 866 q 1451 725 1472 793 q 1394 598 1431 658 q 1306 490 1358 539 q 1191 405 1254 440 q 1055 348 1128 369 q 903 323 982 326 l 903 109 q 868 32 903 63 q 783 0 833 0 q 698 32 733 0 q 663 109 663 63 l 663 323 q 511 348 584 326 q 376 406 439 369 q 261 491 313 442 q 172 599 209 540 q 115 726 135 658 q 95 866 95 793 l 95 870 q 166 1026 95 962 q 335 1090 236 1090 l 335 866 q 364 740 335 799 q 441 636 392 681 q 555 567 490 592 q 694 541 620 541 l 874 541 q 1013 567 948 541 q 1126 636 1078 592 q 1203 740 1175 681 q 1231 866 1231 799 z "},"Þ":{"ha":1567,"x_min":95,"x_max":1468,"o":"m 215 1088 q 300 1056 265 1088 q 335 978 335 1024 l 335 871 l 1110 871 q 1363 775 1258 871 q 1468 546 1468 680 q 1363 316 1468 411 q 1110 217 1258 221 l 647 217 q 477 281 548 217 q 407 435 407 344 l 1110 435 q 1193 467 1159 435 q 1228 543 1228 499 q 1193 620 1228 587 q 1110 653 1159 653 l 335 653 l 335 109 q 300 32 335 63 q 215 0 265 0 q 130 31 165 0 q 95 100 99 60 q 95 101 95 101 l 95 104 l 95 106 l 95 978 q 130 1056 95 1024 q 215 1088 165 1088 z "},"ß":{"ha":1567,"x_min":95,"x_max":1472,"o":"m 736 652 l 1023 872 l 335 872 l 335 109 q 300 32 335 63 q 215 0 265 0 q 130 32 165 0 q 95 109 95 63 l 95 872 q 166 1026 95 962 q 335 1090 236 1090 l 1351 1090 q 1436 1058 1400 1090 q 1472 981 1472 1026 q 1435 903 1472 934 q 1422 893 1432 901 l 1110 654 l 1114 654 q 1366 559 1261 654 q 1472 329 1472 464 q 1366 99 1472 194 q 1114 4 1261 4 l 1114 0 l 646 0 q 476 64 547 0 q 406 218 406 128 l 1114 218 q 1197 250 1162 218 q 1231 329 1231 283 q 1197 403 1231 371 q 1114 440 1162 436 l 983 440 q 959 440 971 440 l 955 440 q 814 500 874 445 q 738 650 744 563 l 736 652 z "},"à":{"ha":1837,"x_min":95,"x_max":1742,"o":"m 1721 165 q 1742 105 1742 137 q 1708 31 1742 61 q 1626 0 1674 0 q 1529 47 1563 0 l 1397 227 l 442 227 l 307 47 q 211 0 273 0 q 129 31 163 0 q 95 105 95 61 q 116 165 95 137 l 744 1006 q 919 1090 807 1090 q 1094 1006 1032 1090 l 1721 165 m 919 867 l 599 437 l 1240 437 l 919 867 m 480 1084 l 480 763 q 310 826 381 763 q 240 981 240 890 l 240 1084 l 480 1084 z "},"á":{"ha":1837,"x_min":95,"x_max":1742,"o":"m 1721 165 q 1742 105 1742 137 q 1708 31 1742 61 q 1626 0 1674 0 q 1529 47 1563 0 l 1397 227 l 442 227 l 307 47 q 211 0 273 0 q 129 31 163 0 q 95 105 95 61 q 116 165 95 137 l 744 1006 q 919 1090 807 1090 q 1094 1006 1032 1090 l 1721 165 m 919 867 l 599 437 l 1240 437 l 919 867 m 1616 1094 l 1616 990 q 1545 836 1616 900 q 1376 772 1475 772 l 1376 1094 l 1616 1094 z "},"â":{"ha":1837,"x_min":95,"x_max":1742,"o":"m 1436 851 l 1210 851 l 1721 165 q 1742 105 1742 137 q 1708 31 1742 61 q 1626 0 1674 0 q 1529 47 1563 0 l 1397 227 l 442 227 l 307 47 q 211 0 273 0 q 129 31 163 0 q 95 105 95 61 q 116 165 95 137 l 628 851 l 413 851 q 476 1020 413 950 q 631 1091 540 1091 l 1218 1091 q 1372 1020 1308 1091 q 1436 851 1436 950 m 1240 437 l 931 851 l 906 851 l 599 437 l 1240 437 z "},"ã":{"ha":1837,"x_min":95,"x_max":1742,"o":"m 410 1091 l 1216 1091 q 1370 1020 1306 1091 q 1434 851 1434 950 l 1210 851 l 1721 165 q 1742 105 1742 137 q 1708 31 1742 61 q 1626 0 1674 0 q 1529 47 1563 0 l 1397 227 l 442 227 l 307 47 q 211 0 273 0 q 129 31 163 0 q 95 105 95 61 q 116 165 95 137 l 628 851 q 474 921 538 851 q 410 1091 410 992 m 1240 437 l 931 851 l 906 851 l 599 437 l 1240 437 z "},"ä":{"ha":1837,"x_min":95,"x_max":1742,"o":"m 1721 165 q 1742 105 1742 137 q 1708 31 1742 61 q 1626 0 1674 0 q 1529 47 1563 0 l 1397 227 l 442 227 l 307 47 q 211 0 273 0 q 129 31 163 0 q 95 105 95 61 q 116 165 95 137 l 744 1006 q 919 1090 807 1090 q 1094 1006 1032 1090 l 1721 165 m 919 867 l 599 437 l 1240 437 l 919 867 m 256 959 q 267 1011 256 987 q 298 1053 278 1035 q 345 1082 318 1072 q 401 1092 372 1092 q 458 1082 431 1092 q 505 1053 485 1072 q 536 1011 525 1035 q 548 959 548 987 q 536 908 548 932 q 505 866 525 883 q 458 838 485 848 q 401 827 431 827 q 345 838 372 827 q 298 866 318 848 q 267 908 278 883 q 256 959 256 932 m 1270 963 q 1282 1015 1270 991 q 1313 1058 1293 1040 q 1359 1086 1333 1076 q 1416 1097 1386 1097 q 1473 1086 1446 1097 q 1519 1058 1499 1076 q 1551 1015 1540 1040 q 1563 963 1563 991 q 1551 912 1563 936 q 1519 870 1540 888 q 1473 842 1499 852 q 1416 831 1446 831 q 1359 842 1386 831 q 1313 870 1333 852 q 1282 912 1293 888 q 1270 963 1270 936 z "},"å":{"ha":1837,"x_min":95,"x_max":1742,"o":"m 1286 765 q 1286 757 1286 761 q 1285 749 1285 753 l 1721 165 q 1742 105 1742 137 q 1708 31 1742 61 q 1626 0 1674 0 q 1529 47 1563 0 l 1472 122 l 365 122 l 307 47 q 211 0 273 0 q 129 31 163 0 q 95 105 95 61 q 116 165 95 137 l 537 729 q 535 765 535 747 q 550 851 535 810 q 592 929 565 893 q 656 995 619 965 q 733 1046 692 1024 q 820 1079 775 1067 q 910 1090 865 1090 q 1000 1079 955 1090 q 1088 1046 1046 1067 q 1165 995 1129 1024 q 1228 929 1201 965 q 1271 851 1256 893 q 1286 765 1286 810 m 910 440 q 782 463 846 440 q 666 527 719 486 l 522 331 l 1315 331 l 1165 535 q 1044 466 1110 491 q 910 440 978 440 m 1072 764 q 1056 805 1072 785 q 1016 839 1040 824 q 965 861 992 853 q 917 869 938 869 q 867 861 894 869 q 817 839 840 853 q 777 805 793 824 q 760 764 760 785 q 777 723 760 742 q 817 690 793 703 q 867 667 840 676 q 917 659 894 659 q 965 667 938 659 q 1016 690 992 676 q 1056 723 1040 703 q 1072 764 1072 742 z "},"æ":{"ha":2010,"x_min":95,"x_max":1912,"o":"m 1631 1090 q 1816 1027 1737 1090 q 1912 872 1896 965 l 1160 872 l 1160 654 l 1606 654 q 1535 500 1606 564 q 1366 436 1465 436 l 1160 436 l 1160 218 l 1912 218 q 1816 63 1896 125 q 1631 0 1737 0 l 1160 0 q 990 64 1060 0 q 918 218 919 127 l 918 227 l 442 227 l 307 47 q 211 0 273 0 q 129 31 163 0 q 95 105 95 61 q 116 165 95 137 l 744 1006 q 919 1090 807 1090 l 919 1087 q 1631 1090 1063 1090 m 918 437 l 918 866 l 599 437 l 918 437 z "},"ç":{"ha":1563,"x_min":94,"x_max":1467,"o":"m 550 441 l 1467 441 q 1372 288 1451 348 q 1186 227 1292 227 l 996 227 l 996 215 q 925 56 996 120 q 756 -8 855 -8 l 756 227 l 550 227 q 372 262 455 228 q 227 355 289 297 q 130 492 165 414 q 94 658 94 569 q 110 772 94 717 q 156 874 126 826 q 227 961 185 922 q 319 1029 269 1001 q 428 1073 370 1057 q 550 1090 487 1089 l 550 1090 l 1186 1090 q 1372 1027 1292 1090 q 1467 872 1451 965 l 550 872 l 550 874 q 467 856 506 873 q 399 809 428 838 q 353 741 370 780 q 337 657 337 701 q 353 573 337 613 q 399 505 370 534 q 467 459 428 476 q 550 441 506 442 z "},"è":{"ha":1563,"x_min":95,"x_max":1467,"o":"m 338 1090 l 1186 1090 q 1372 1027 1292 1090 q 1467 872 1451 965 l 338 872 l 338 654 l 923 654 q 853 500 923 564 q 683 436 783 436 l 338 436 l 338 218 l 1467 218 q 1372 63 1451 125 q 1186 0 1292 0 l 338 0 q 167 64 238 0 q 95 218 97 127 l 95 872 q 167 1026 97 963 q 338 1090 238 1090 m 1322 806 l 1322 484 q 1152 548 1223 484 q 1082 702 1082 612 l 1082 806 l 1322 806 z "},"é":{"ha":1563,"x_min":95,"x_max":1467,"o":"m 338 1090 l 1186 1090 q 1372 1027 1292 1090 q 1467 872 1451 965 l 338 872 l 338 654 l 923 654 q 853 500 923 564 q 683 436 783 436 l 338 436 l 338 218 l 1467 218 q 1372 63 1451 125 q 1186 0 1292 0 l 338 0 q 167 64 238 0 q 95 218 97 127 l 95 872 q 167 1026 97 963 q 338 1090 238 1090 m 1322 806 l 1322 702 q 1252 548 1322 612 q 1082 484 1181 484 l 1082 806 l 1322 806 z "},"ê":{"ha":1563,"x_min":95,"x_max":1467,"o":"m 692 1090 l 1186 1090 q 1372 1027 1292 1090 q 1467 872 1451 965 l 338 872 l 338 654 l 1161 654 q 1091 500 1161 564 q 922 436 1021 436 l 338 436 l 338 218 l 1467 218 q 1372 63 1451 125 q 1186 0 1292 0 l 338 0 q 167 64 238 0 q 95 218 97 127 l 95 872 q 167 1026 97 963 q 338 1090 238 1090 l 415 1090 l 415 892 q 506 1027 435 971 q 692 1090 586 1090 z "},"ë":{"ha":1563,"x_min":95,"x_max":1467,"o":"m 338 1090 l 555 1090 q 741 1027 661 1090 q 836 872 820 965 l 338 872 l 338 654 l 1161 654 q 1091 500 1161 564 q 922 436 1021 436 l 338 436 l 338 218 l 1467 218 q 1372 63 1451 125 q 1186 0 1292 0 l 338 0 q 167 64 238 0 q 95 218 97 127 l 95 872 q 167 1026 97 963 q 338 1090 238 1090 m 1163 964 q 1175 1016 1163 992 q 1206 1058 1186 1040 q 1252 1087 1226 1076 q 1309 1097 1279 1097 q 1366 1087 1339 1097 q 1413 1058 1392 1076 q 1444 1016 1433 1040 q 1456 964 1456 992 q 1444 913 1456 937 q 1413 870 1433 888 q 1366 842 1392 853 q 1309 832 1339 832 q 1252 842 1279 832 q 1206 870 1226 853 q 1175 913 1186 888 q 1163 964 1163 937 m 837 956 q 848 1008 837 983 q 880 1050 860 1032 q 926 1078 899 1068 q 983 1089 953 1089 q 1039 1078 1013 1089 q 1086 1050 1066 1068 q 1118 1008 1106 1032 q 1129 956 1129 983 q 1118 904 1129 928 q 1086 862 1106 880 q 1039 834 1066 844 q 983 824 1013 824 q 926 834 953 824 q 880 862 899 844 q 848 904 860 880 q 837 956 837 928 z "},"ì":{"ha":431,"x_min":94,"x_max":335,"o":"m 215 783 q 300 751 265 783 q 335 674 335 719 l 335 109 q 300 32 335 63 q 215 0 265 0 q 130 32 165 0 q 95 109 95 63 l 95 674 q 130 751 95 719 q 215 783 165 783 m 331 1100 l 331 826 q 164 889 233 826 q 94 1040 94 951 l 94 1100 l 331 1100 z "},"í":{"ha":431,"x_min":94,"x_max":335,"o":"m 215 783 q 300 751 265 783 q 335 674 335 719 l 335 109 q 300 32 335 63 q 215 0 265 0 q 130 32 165 0 q 95 109 95 63 l 95 674 q 130 751 95 719 q 215 783 165 783 m 331 1100 l 331 1040 q 261 889 331 951 q 94 826 192 826 l 94 1100 l 331 1100 z "},"î":{"ha":431,"x_min":-31,"x_max":460,"o":"m 215 783 q 300 751 265 783 q 335 674 335 719 l 335 109 q 300 32 335 63 q 215 0 265 0 q 130 32 165 0 q 95 109 95 63 l 95 674 q 130 751 95 719 q 215 783 165 783 m 460 862 l -31 862 q 32 1029 -31 960 q 184 1098 95 1098 l 245 1098 q 397 1029 334 1098 q 460 862 460 960 z "},"ï":{"ha":612,"x_min":5,"x_max":624,"o":"m 310 783 q 395 751 360 783 q 430 674 430 719 l 430 109 q 395 32 430 63 q 310 0 360 0 q 225 32 260 0 q 190 109 190 63 l 190 674 q 225 751 190 719 q 310 783 260 783 m 5 956 q 16 1008 5 983 q 48 1050 28 1032 q 94 1078 67 1068 q 151 1089 121 1089 q 207 1078 181 1089 q 254 1050 234 1068 q 286 1008 274 1032 q 297 956 297 983 q 286 904 297 928 q 254 862 274 880 q 207 834 234 844 q 151 824 181 824 q 94 834 121 824 q 48 862 67 844 q 16 904 28 880 q 5 956 5 928 m 331 964 q 343 1016 331 992 q 374 1058 354 1040 q 420 1087 394 1076 q 477 1097 447 1097 q 534 1087 507 1097 q 581 1058 560 1076 q 612 1016 601 1040 q 624 964 624 992 q 612 913 624 937 q 581 870 601 888 q 534 842 560 853 q 477 832 507 832 q 420 842 447 832 q 374 870 394 853 q 343 913 354 888 q 331 964 331 937 z "},"ð":{"ha":1567,"x_min":43,"x_max":1473,"o":"m 43 545 q 75 624 43 592 q 152 656 107 656 l 224 656 l 224 871 q 294 1025 224 960 q 465 1089 365 1089 l 875 1089 q 1034 1069 958 1089 q 1177 1015 1110 1050 q 1298 930 1243 980 q 1392 820 1353 881 q 1452 690 1431 760 q 1473 546 1473 621 q 1452 401 1473 471 q 1392 270 1431 331 q 1298 160 1353 210 q 1177 75 1243 110 q 1034 19 1110 39 q 875 0 958 0 l 776 0 q 607 64 677 0 q 536 218 536 128 l 875 218 q 1015 244 949 218 q 1128 314 1080 270 q 1205 418 1177 358 q 1233 544 1233 477 q 1205 671 1233 612 q 1128 775 1177 731 q 1015 845 1080 819 q 875 871 949 871 l 465 871 l 465 656 l 619 656 q 696 624 665 656 q 728 545 728 592 q 696 466 728 499 q 619 434 665 434 l 465 434 l 465 108 q 430 30 465 62 q 344 -1 394 -1 q 259 30 294 -1 q 224 108 224 62 l 224 434 l 152 434 q 75 466 107 434 q 43 545 43 499 z "},"ñ":{"ha":1567,"x_min":95,"x_max":1472,"o":"m 215 1090 q 292 1065 258 1090 l 1231 344 l 1231 981 q 1266 1058 1231 1026 q 1351 1090 1301 1090 q 1436 1058 1400 1090 q 1472 981 1472 1026 l 1472 109 q 1436 32 1472 63 q 1351 0 1400 0 q 1274 26 1308 0 l 335 747 l 335 109 q 300 32 335 63 q 215 0 265 0 q 130 32 165 0 q 95 109 95 63 l 95 981 q 130 1058 95 1026 q 215 1090 165 1090 m 520 1092 l 943 1092 q 1097 1021 1033 1092 q 1161 851 1161 951 l 738 851 q 584 922 648 851 q 520 1092 520 992 z "},"ò":{"ha":1567,"x_min":97,"x_max":1472,"o":"m 903 805 l 903 483 q 733 547 803 483 q 663 701 663 611 l 663 805 l 903 805 m 694 1082 l 874 1082 q 1033 1063 957 1082 q 1176 1008 1110 1043 q 1297 923 1242 972 q 1391 813 1352 873 q 1451 682 1430 752 q 1472 538 1472 613 q 1451 393 1472 463 q 1391 263 1430 324 q 1297 153 1352 203 q 1176 68 1242 103 q 1033 13 1110 33 q 874 -6 957 -6 l 694 -6 q 535 13 612 -6 q 393 68 459 33 q 272 153 326 103 q 178 263 217 203 q 118 393 139 324 q 97 538 97 463 q 118 682 97 613 q 178 813 139 752 q 272 923 217 873 q 393 1008 326 972 q 535 1063 459 1043 q 694 1082 612 1082 m 336 539 q 364 412 336 472 q 441 308 392 353 q 555 238 490 264 q 694 213 620 213 l 874 213 q 1014 238 949 213 q 1128 308 1079 264 q 1205 412 1176 353 q 1233 539 1233 472 q 1205 666 1233 606 q 1128 769 1176 725 q 1014 839 1079 813 q 874 865 949 865 l 694 865 q 555 839 620 865 q 441 769 490 813 q 364 666 392 725 q 336 539 336 606 z "},"ó":{"ha":1567,"x_min":97,"x_max":1472,"o":"m 903 816 l 903 713 q 832 558 903 622 q 663 494 762 494 l 663 816 l 903 816 m 694 1082 l 874 1082 q 1033 1063 957 1082 q 1176 1008 1110 1043 q 1297 923 1242 972 q 1391 813 1352 873 q 1451 682 1430 752 q 1472 538 1472 613 q 1451 393 1472 463 q 1391 263 1430 324 q 1297 153 1352 203 q 1176 68 1242 103 q 1033 13 1110 33 q 874 -6 957 -6 l 694 -6 q 535 13 612 -6 q 393 68 459 33 q 272 153 326 103 q 178 263 217 203 q 118 393 139 324 q 97 538 97 463 q 118 682 97 613 q 178 813 139 752 q 272 923 217 873 q 393 1008 326 972 q 535 1063 459 1043 q 694 1082 612 1082 m 336 539 q 364 412 336 472 q 441 308 392 353 q 555 238 490 264 q 694 213 620 213 l 874 213 q 1014 238 949 213 q 1128 308 1079 264 q 1205 412 1176 353 q 1233 539 1233 472 q 1205 666 1233 606 q 1128 769 1176 725 q 1014 839 1079 813 q 874 865 949 865 l 694 865 q 555 839 620 865 q 441 769 490 813 q 364 666 392 725 q 336 539 336 606 z "},"ô":{"ha":1567,"x_min":97,"x_max":1472,"o":"m 465 676 q 476 625 465 649 q 507 583 488 601 q 554 555 527 565 q 610 544 581 544 q 667 555 640 544 q 714 583 694 565 q 745 625 734 601 q 757 676 757 649 q 745 728 757 704 q 714 771 734 753 q 667 799 694 789 q 610 810 640 810 q 554 799 581 810 q 507 771 527 789 q 476 728 488 753 q 465 676 465 704 m 826 672 q 838 620 826 644 q 869 578 849 596 q 916 550 889 560 q 972 540 942 540 q 1029 550 1002 540 q 1076 578 1056 560 q 1107 620 1096 596 q 1119 672 1119 644 q 1107 724 1119 699 q 1076 766 1096 748 q 1029 794 1056 784 q 972 805 1002 805 q 916 794 942 805 q 869 766 889 784 q 838 724 849 748 q 826 672 826 699 m 694 1082 l 874 1082 q 1033 1063 957 1082 q 1176 1008 1110 1043 q 1297 923 1242 972 q 1391 813 1352 873 q 1451 682 1430 752 q 1472 538 1472 613 q 1451 393 1472 463 q 1391 263 1430 324 q 1297 153 1352 203 q 1176 68 1242 103 q 1033 13 1110 33 q 874 -6 957 -6 l 694 -6 q 535 13 612 -6 q 393 68 459 33 q 272 153 326 103 q 178 263 217 203 q 118 393 139 324 q 97 538 97 463 q 118 682 97 613 q 178 813 139 752 q 272 923 217 873 q 393 1008 326 972 q 535 1063 459 1043 q 694 1082 612 1082 m 336 539 q 364 412 336 472 q 441 308 392 353 q 555 238 490 264 q 694 213 620 213 l 874 213 q 1014 238 949 213 q 1128 308 1079 264 q 1205 412 1176 353 q 1233 539 1233 472 q 1205 666 1233 606 q 1128 769 1176 725 q 1014 839 1079 813 q 874 865 949 865 l 694 865 q 555 839 620 865 q 441 769 490 813 q 364 666 392 725 q 336 539 336 606 z "},"õ":{"ha":1567,"x_min":97,"x_max":1472,"o":"m 552 811 l 904 811 q 1058 741 994 811 q 1122 571 1122 670 l 770 571 q 616 641 680 571 q 552 811 552 712 m 694 1082 l 874 1082 q 1033 1063 957 1082 q 1176 1008 1110 1043 q 1297 923 1242 972 q 1391 813 1352 873 q 1451 682 1430 752 q 1472 538 1472 613 q 1451 393 1472 463 q 1391 263 1430 324 q 1297 153 1352 203 q 1176 68 1242 103 q 1033 13 1110 33 q 874 -6 957 -6 l 694 -6 q 535 13 612 -6 q 393 68 459 33 q 272 153 326 103 q 178 263 217 203 q 118 393 139 324 q 97 538 97 463 q 118 682 97 613 q 178 813 139 752 q 272 923 217 873 q 393 1008 326 972 q 535 1063 459 1043 q 694 1082 612 1082 m 336 539 q 364 412 336 472 q 441 308 392 353 q 555 238 490 264 q 694 213 620 213 l 874 213 q 1014 238 949 213 q 1128 308 1079 264 q 1205 412 1176 353 q 1233 539 1233 472 q 1205 666 1233 606 q 1128 769 1176 725 q 1014 839 1079 813 q 874 865 949 865 l 694 865 q 555 839 620 865 q 441 769 490 813 q 364 666 392 725 q 336 539 336 606 z "},"ö":{"ha":1567,"x_min":97,"x_max":1472,"o":"m 509 539 q 489 628 482 578 q 531 707 495 678 l 604 762 q 776 826 682 826 q 948 763 870 826 l 1031 706 l 1031 705 q 1073 626 1067 675 q 1053 537 1080 576 q 982 490 1026 497 q 901 512 938 483 l 900 513 l 776 605 l 663 515 l 662 515 q 582 492 626 485 q 509 539 537 499 m 694 1082 l 874 1082 q 1033 1063 957 1082 q 1176 1008 1110 1043 q 1297 923 1242 972 q 1391 813 1352 873 q 1451 682 1430 752 q 1472 538 1472 613 q 1451 393 1472 463 q 1391 263 1430 324 q 1297 153 1352 203 q 1176 68 1242 103 q 1033 13 1110 33 q 874 -6 957 -6 l 694 -6 q 535 13 612 -6 q 393 68 459 33 q 272 153 326 103 q 178 263 217 203 q 118 393 139 324 q 97 538 97 463 q 118 682 97 613 q 178 813 139 752 q 272 923 217 873 q 393 1008 326 972 q 535 1063 459 1043 q 694 1082 612 1082 m 336 539 q 364 412 336 472 q 441 308 392 353 q 555 238 490 264 q 694 213 620 213 l 874 213 q 1014 238 949 213 q 1128 308 1079 264 q 1205 412 1176 353 q 1233 539 1233 472 q 1205 666 1233 606 q 1128 769 1176 725 q 1014 839 1079 813 q 874 865 949 865 l 694 865 q 555 839 620 865 q 441 769 490 813 q 364 666 392 725 q 336 539 336 606 z "},"ø":{"ha":1567,"x_min":97,"x_max":1472,"o":"m 694 1082 l 874 1082 q 927 1080 901 1082 q 978 1073 953 1077 l 992 1095 q 1098 1151 1028 1151 q 1183 1119 1148 1151 q 1218 1042 1218 1088 q 1203 992 1218 1015 q 1314 906 1264 955 q 1399 799 1363 858 q 1453 675 1434 741 q 1472 538 1472 608 q 1451 393 1472 463 q 1391 263 1430 324 q 1297 153 1352 203 q 1176 68 1242 103 q 1033 13 1110 33 q 874 -6 957 -6 l 694 -6 q 633 -3 663 -6 q 574 5 603 -1 l 542 -44 q 458 -77 528 -77 q 373 -45 408 -77 q 338 32 338 -13 q 356 87 338 62 l 356 88 q 249 174 297 125 q 167 280 201 222 q 115 402 133 337 q 97 538 97 467 q 118 682 97 613 q 178 813 139 752 q 272 923 217 873 q 393 1008 326 972 q 535 1063 459 1043 q 694 1082 612 1082 m 874 213 q 1014 238 949 213 q 1128 308 1079 264 q 1205 412 1176 353 q 1233 539 1233 472 q 1222 617 1233 579 q 1193 688 1212 655 q 1147 750 1174 722 q 1086 801 1119 779 l 920 532 l 710 213 l 874 213 m 661 558 l 850 865 l 694 865 q 555 839 620 865 q 441 769 490 813 q 364 666 392 725 q 336 539 336 606 q 346 461 336 499 q 375 390 356 424 q 420 328 394 357 q 479 278 447 300 l 661 558 z "},"ù":{"ha":1567,"x_min":95,"x_max":1472,"o":"m 903 1094 l 903 772 q 733 836 803 772 q 663 990 663 900 l 663 1094 l 903 1094 m 874 -6 l 694 -6 q 535 13 612 -6 q 392 68 459 33 q 271 153 326 103 q 177 263 216 203 q 117 393 138 324 q 95 538 95 463 l 95 981 q 130 1058 95 1026 q 215 1090 165 1090 q 300 1058 265 1090 q 335 981 335 1026 l 335 538 q 364 411 335 470 q 441 308 392 352 q 555 238 490 264 q 694 213 620 213 l 874 213 q 1013 238 948 213 q 1126 308 1078 264 q 1203 411 1175 352 q 1231 538 1231 470 l 1231 981 q 1266 1058 1231 1026 q 1351 1090 1301 1090 q 1436 1058 1400 1090 q 1472 981 1472 1026 l 1472 538 q 1450 393 1472 463 q 1390 263 1429 324 q 1297 153 1351 203 q 1176 68 1242 103 q 1033 13 1110 33 q 874 -6 957 -6 z "},"ú":{"ha":1567,"x_min":95,"x_max":1472,"o":"m 903 1094 l 903 990 q 832 836 903 900 q 663 772 762 772 l 663 1094 l 903 1094 m 874 -6 l 694 -6 q 535 13 612 -6 q 392 68 459 33 q 271 153 326 103 q 177 263 216 203 q 117 393 138 324 q 95 538 95 463 l 95 981 q 130 1058 95 1026 q 215 1090 165 1090 q 300 1058 265 1090 q 335 981 335 1026 l 335 538 q 364 411 335 470 q 441 308 392 352 q 555 238 490 264 q 694 213 620 213 l 874 213 q 1013 238 948 213 q 1126 308 1078 264 q 1203 411 1175 352 q 1231 538 1231 470 l 1231 981 q 1266 1058 1231 1026 q 1351 1090 1301 1090 q 1436 1058 1400 1090 q 1472 981 1472 1026 l 1472 538 q 1450 393 1472 463 q 1390 263 1429 324 q 1297 153 1351 203 q 1176 68 1242 103 q 1033 13 1110 33 q 874 -6 957 -6 z "},"û":{"ha":1567,"x_min":95,"x_max":1472,"o":"m 516 796 q 495 885 489 835 q 538 964 502 935 l 611 1019 q 783 1083 689 1083 q 955 1020 877 1083 l 1038 963 l 1038 962 q 1080 883 1074 932 q 1060 794 1087 833 q 989 747 1033 754 q 908 769 944 740 l 907 769 l 783 862 l 669 772 l 669 772 q 589 749 633 742 q 516 796 544 756 m 874 -6 l 694 -6 q 535 13 612 -6 q 392 68 459 33 q 271 153 326 103 q 177 263 216 203 q 117 393 138 324 q 95 538 95 463 l 95 981 q 130 1058 95 1026 q 215 1090 165 1090 q 300 1058 265 1090 q 335 981 335 1026 l 335 538 q 364 411 335 470 q 441 308 392 352 q 555 238 490 264 q 694 213 620 213 l 874 213 q 1013 238 948 213 q 1126 308 1078 264 q 1203 411 1175 352 q 1231 538 1231 470 l 1231 981 q 1266 1058 1231 1026 q 1351 1090 1301 1090 q 1436 1058 1400 1090 q 1472 981 1472 1026 l 1472 538 q 1450 393 1472 463 q 1390 263 1429 324 q 1297 153 1351 203 q 1176 68 1242 103 q 1033 13 1110 33 q 874 -6 957 -6 z "},"ü":{"ha":1567,"x_min":95,"x_max":1472,"o":"m 419 956 q 430 1008 419 983 q 461 1050 442 1032 q 508 1078 481 1068 q 565 1089 535 1089 q 621 1078 594 1089 q 668 1050 648 1068 q 700 1008 688 1032 q 711 956 711 983 q 700 904 711 928 q 668 862 688 880 q 621 834 648 844 q 565 824 594 824 q 508 834 535 824 q 461 862 481 844 q 430 904 442 880 q 419 956 419 928 m 860 964 q 872 1016 860 992 q 903 1058 883 1040 q 950 1087 923 1076 q 1006 1097 976 1097 q 1063 1087 1036 1097 q 1110 1058 1090 1076 q 1141 1016 1130 1040 q 1153 964 1153 992 q 1141 913 1153 937 q 1110 870 1130 888 q 1063 842 1090 853 q 1006 832 1036 832 q 950 842 976 832 q 903 870 923 853 q 872 913 883 888 q 860 964 860 937 m 874 -6 l 694 -6 q 535 13 612 -6 q 392 68 459 33 q 271 153 326 103 q 177 263 216 203 q 117 393 138 324 q 95 538 95 463 l 95 981 q 130 1058 95 1026 q 215 1090 165 1090 q 300 1058 265 1090 q 335 981 335 1026 l 335 538 q 364 411 335 470 q 441 308 392 352 q 555 238 490 264 q 694 213 620 213 l 874 213 q 1013 238 948 213 q 1126 308 1078 264 q 1203 411 1175 352 q 1231 538 1231 470 l 1231 981 q 1266 1058 1231 1026 q 1351 1090 1301 1090 q 1436 1058 1400 1090 q 1472 981 1472 1026 l 1472 538 q 1450 393 1472 463 q 1390 263 1429 324 q 1297 153 1351 203 q 1176 68 1242 103 q 1033 13 1110 33 q 874 -6 957 -6 z "},"ý":{"ha":1567,"x_min":95,"x_max":1472,"o":"m 903 1094 l 903 990 q 832 836 903 900 q 663 772 762 772 l 663 1094 l 903 1094 m 1231 866 l 1231 1090 q 1401 1026 1330 1090 q 1472 872 1472 962 l 1472 866 q 1451 725 1472 793 q 1394 598 1431 658 q 1306 490 1358 539 q 1191 405 1254 440 q 1055 348 1128 369 q 903 323 982 326 l 903 109 q 868 32 903 63 q 783 0 833 0 q 698 32 733 0 q 663 109 663 63 l 663 323 q 511 348 584 326 q 376 406 439 369 q 261 491 313 442 q 172 599 209 540 q 115 726 135 658 q 95 866 95 793 l 95 870 q 166 1026 95 962 q 335 1090 236 1090 l 335 866 q 364 740 335 799 q 441 636 392 681 q 555 567 490 592 q 694 541 620 541 l 874 541 q 1013 567 948 541 q 1126 636 1078 592 q 1203 740 1175 681 q 1231 866 1231 799 z "},"þ":{"ha":1567,"x_min":95,"x_max":1468,"o":"m 215 1088 q 300 1056 265 1088 q 335 978 335 1024 l 335 871 l 1110 871 q 1363 775 1258 871 q 1468 546 1468 680 q 1363 316 1468 411 q 1110 217 1258 221 l 647 217 q 477 281 548 217 q 407 435 407 344 l 1110 435 q 1193 467 1159 435 q 1228 543 1228 499 q 1193 620 1228 587 q 1110 653 1159 653 l 335 653 l 335 109 q 300 32 335 63 q 215 0 265 0 q 130 31 165 0 q 95 100 99 60 q 95 101 95 101 l 95 104 l 95 106 l 95 978 q 130 1056 95 1024 q 215 1088 165 1088 z "},"ÿ":{"ha":1567,"x_min":95,"x_max":1472,"o":"m 419 956 q 430 1008 419 983 q 461 1050 442 1032 q 508 1078 481 1068 q 565 1089 535 1089 q 621 1078 594 1089 q 668 1050 648 1068 q 700 1008 688 1032 q 711 956 711 983 q 700 904 711 928 q 668 862 688 880 q 621 834 648 844 q 565 824 594 824 q 508 834 535 824 q 461 862 481 844 q 430 904 442 880 q 419 956 419 928 m 860 964 q 872 1016 860 992 q 903 1058 883 1040 q 950 1087 923 1076 q 1006 1097 976 1097 q 1063 1087 1036 1097 q 1110 1058 1090 1076 q 1141 1016 1130 1040 q 1153 964 1153 992 q 1141 913 1153 937 q 1110 870 1130 888 q 1063 842 1090 853 q 1006 832 1036 832 q 950 842 976 832 q 903 870 923 853 q 872 913 883 888 q 860 964 860 937 m 1231 866 l 1231 1090 q 1401 1026 1330 1090 q 1472 872 1472 962 l 1472 866 q 1451 725 1472 793 q 1394 598 1431 658 q 1306 490 1358 539 q 1191 405 1254 440 q 1055 348 1128 369 q 903 323 982 326 l 903 109 q 868 32 903 63 q 783 0 833 0 q 698 32 733 0 q 663 109 663 63 l 663 323 q 511 348 584 326 q 376 406 439 369 q 261 491 313 442 q 172 599 209 540 q 115 726 135 658 q 95 866 95 793 l 95 870 q 166 1026 95 962 q 335 1090 236 1090 l 335 866 q 364 740 335 799 q 441 636 392 681 q 555 567 490 592 q 694 541 620 541 l 874 541 q 1013 567 948 541 q 1126 636 1078 592 q 1203 740 1175 681 q 1231 866 1231 799 z "},"Œ":{"ha":1563,"x_min":95,"x_max":1467,"o":"m 965 1090 l 1186 1090 q 1372 1027 1292 1090 q 1467 872 1451 965 l 998 872 l 998 654 l 1316 654 q 1246 500 1316 564 q 1076 436 1176 436 l 998 436 l 998 218 l 1467 218 q 1372 63 1451 125 q 1186 0 1292 0 l 965 0 q 827 63 898 0 q 756 202 763 122 q 664 63 737 119 q 522 0 585 0 l 338 0 q 167 64 238 0 q 95 218 97 127 l 95 872 q 167 1026 97 963 q 338 1090 238 1090 l 478 1090 q 664 1027 585 1090 q 756 888 737 970 q 827 1026 763 968 q 965 1090 898 1090 m 338 218 l 756 218 l 756 872 l 338 872 l 338 218 z "},"œ":{"ha":1563,"x_min":95,"x_max":1467,"o":"m 965 1090 l 1186 1090 q 1372 1027 1292 1090 q 1467 872 1451 965 l 998 872 l 998 654 l 1316 654 q 1246 500 1316 564 q 1076 436 1176 436 l 998 436 l 998 218 l 1467 218 q 1372 63 1451 125 q 1186 0 1292 0 l 965 0 q 827 63 898 0 q 756 202 763 122 q 664 63 737 119 q 522 0 585 0 l 338 0 q 167 64 238 0 q 95 218 97 127 l 95 872 q 167 1026 97 963 q 338 1090 238 1090 l 478 1090 q 664 1027 585 1090 q 756 888 737 970 q 827 1026 763 968 q 965 1090 898 1090 m 338 218 l 756 218 l 756 872 l 338 872 l 338 218 z "},"Ÿ":{"ha":1567,"x_min":95,"x_max":1472,"o":"m 419 956 q 430 1008 419 983 q 461 1050 442 1032 q 508 1078 481 1068 q 565 1089 535 1089 q 621 1078 594 1089 q 668 1050 648 1068 q 700 1008 688 1032 q 711 956 711 983 q 700 904 711 928 q 668 862 688 880 q 621 834 648 844 q 565 824 594 824 q 508 834 535 824 q 461 862 481 844 q 430 904 442 880 q 419 956 419 928 m 860 964 q 872 1016 860 992 q 903 1058 883 1040 q 950 1087 923 1076 q 1006 1097 976 1097 q 1063 1087 1036 1097 q 1110 1058 1090 1076 q 1141 1016 1130 1040 q 1153 964 1153 992 q 1141 913 1153 937 q 1110 870 1130 888 q 1063 842 1090 853 q 1006 832 1036 832 q 950 842 976 832 q 903 870 923 853 q 872 913 883 888 q 860 964 860 937 m 1231 866 l 1231 1090 q 1401 1026 1330 1090 q 1472 872 1472 962 l 1472 866 q 1451 725 1472 793 q 1394 598 1431 658 q 1306 490 1358 539 q 1191 405 1254 440 q 1055 348 1128 369 q 903 323 982 326 l 903 109 q 868 32 903 63 q 783 0 833 0 q 698 32 733 0 q 663 109 663 63 l 663 323 q 511 348 584 326 q 376 406 439 369 q 261 491 313 442 q 172 599 209 540 q 115 726 135 658 q 95 866 95 793 l 95 870 q 166 1026 95 962 q 335 1090 236 1090 l 335 866 q 364 740 335 799 q 441 636 392 681 q 555 567 490 592 q 694 541 620 541 l 874 541 q 1013 567 948 541 q 1126 636 1078 592 q 1203 740 1175 681 q 1231 866 1231 799 z "},"…":{"ha":1294,"x_min":95,"x_max":1199,"o":"m 95 109 q 105 152 95 132 q 130 186 114 172 q 168 210 147 201 q 215 219 190 219 q 262 210 240 219 q 301 186 284 201 q 327 152 317 172 q 336 109 336 132 q 327 66 336 86 q 301 32 317 47 q 262 9 284 17 q 215 0 240 0 q 168 9 190 0 q 130 32 147 17 q 105 66 114 47 q 95 109 95 86 m 526 109 q 536 152 526 132 q 561 186 545 172 q 600 210 578 201 q 647 219 622 219 q 693 210 672 219 q 732 186 715 201 q 758 152 749 172 q 767 109 767 132 q 758 66 767 86 q 732 32 749 47 q 693 9 715 17 q 647 0 672 0 q 600 9 622 0 q 561 32 578 17 q 536 66 545 47 q 526 109 526 86 m 958 109 q 967 152 958 132 q 993 186 976 172 q 1031 210 1009 201 q 1078 219 1053 219 q 1125 210 1103 219 q 1163 186 1147 201 q 1189 152 1180 172 q 1199 109 1199 132 q 1189 66 1199 86 q 1163 32 1180 47 q 1125 9 1147 17 q 1078 0 1103 0 q 1031 9 1053 0 q 993 32 1009 17 q 967 66 976 47 q 958 109 958 86 z "},"€":{"ha":1469,"x_min":43,"x_max":1408,"o":"m 850 1089 l 1126 1089 q 1312 1026 1233 1089 q 1408 871 1392 963 l 850 871 q 724 850 783 870 q 618 793 665 829 l 1129 793 q 1207 761 1175 793 q 1238 682 1238 728 q 1207 603 1238 635 q 1129 571 1175 571 l 492 571 q 492 557 492 564 q 492 544 492 551 q 492 533 492 539 q 492 522 492 528 l 943 522 q 1020 490 989 522 q 1052 411 1052 458 q 1020 332 1052 365 q 943 300 989 300 l 613 300 q 721 240 660 261 q 850 218 781 218 l 1408 218 q 1312 63 1392 125 q 1126 0 1233 0 l 850 0 q 681 22 762 0 q 531 83 600 44 q 407 178 462 123 q 315 300 351 233 l 152 300 q 75 332 107 300 q 43 411 43 365 q 75 490 43 458 q 152 522 107 522 l 252 522 l 252 543 q 252 557 252 550 q 253 571 252 564 l 152 571 q 75 603 107 571 q 43 682 43 635 q 75 761 43 728 q 152 793 107 793 l 318 793 q 410 913 356 858 q 534 1007 465 967 q 683 1067 603 1046 q 850 1089 763 1089 z "},"÷":{"ha":431,"x_min":95,"x_max":336,"o":"m 95 772 q 105 814 95 794 q 130 849 114 834 q 168 873 147 864 q 215 881 190 881 q 262 873 240 881 q 301 849 284 864 q 327 814 317 834 q 336 772 336 794 q 327 729 336 749 q 301 694 317 709 q 262 671 284 680 q 215 663 240 663 q 168 671 190 663 q 130 694 147 680 q 105 729 114 709 q 95 772 95 749 m 95 334 q 105 377 95 357 q 130 411 114 397 q 168 435 147 426 q 215 444 190 444 q 262 435 240 444 q 301 411 284 426 q 327 377 317 397 q 336 334 336 357 q 327 291 336 311 q 301 257 317 272 q 262 234 284 242 q 215 225 240 225 q 168 234 190 225 q 130 257 147 242 q 105 291 114 272 q 95 334 95 311 z "},"Ú":{"ha":1567,"x_min":95,"x_max":1472,"o":"m 903 1094 l 903 990 q 832 836 903 900 q 663 772 762 772 l 663 1094 l 903 1094 m 874 -6 l 694 -6 q 535 13 612 -6 q 392 68 459 33 q 271 153 326 103 q 177 263 216 203 q 117 393 138 324 q 95 538 95 463 l 95 981 q 130 1058 95 1026 q 215 1090 165 1090 q 300 1058 265 1090 q 335 981 335 1026 l 335 538 q 364 411 335 470 q 441 308 392 352 q 555 238 490 264 q 694 213 620 213 l 874 213 q 1013 238 948 213 q 1126 308 1078 264 q 1203 411 1175 352 q 1231 538 1231 470 l 1231 981 q 1266 1058 1231 1026 q 1351 1090 1301 1090 q 1436 1058 1400 1090 q 1472 981 1472 1026 l 1472 538 q 1450 393 1472 463 q 1390 263 1429 324 q 1297 153 1351 203 q 1176 68 1242 103 q 1033 13 1110 33 q 874 -6 957 -6 z "},"¼":{"ha":2014,"x_min":132,"x_max":1941,"o":"m 604 558 l 901 1035 q 1007 1091 937 1091 q 1092 1059 1057 1091 q 1127 982 1127 1027 q 1110 927 1127 952 l 863 532 l 566 56 q 460 -1 531 -1 q 375 31 410 -1 q 340 108 340 63 q 358 163 340 138 l 604 558 m 1556 868 q 1641 836 1606 868 q 1676 759 1676 804 l 1676 438 l 1941 438 q 1870 284 1941 348 q 1701 220 1800 220 l 1676 220 l 1676 109 q 1641 32 1676 63 q 1556 0 1606 0 q 1471 32 1506 0 q 1436 109 1436 63 l 1436 220 l 1330 220 q 1160 284 1231 220 q 1090 438 1090 348 l 1090 759 q 1125 836 1090 804 q 1210 868 1161 868 q 1295 836 1260 868 q 1330 759 1330 804 l 1330 438 l 1436 438 l 1436 759 q 1471 836 1436 804 q 1556 868 1506 868 m 251 1101 q 336 1069 301 1101 q 372 992 372 1038 l 372 342 q 336 265 372 297 q 251 233 301 233 q 167 265 201 233 q 132 342 132 297 l 132 992 q 167 1069 132 1038 q 251 1101 201 1101 z "},"½":{"ha":1272,"x_min":136,"x_max":1911,"o":"m 641 558 l 938 1035 q 1044 1091 974 1091 q 1129 1059 1094 1091 q 1164 982 1164 1027 q 1147 927 1164 952 l 900 532 l 603 56 q 497 -1 567 -1 q 412 31 447 -1 q 377 108 377 63 q 394 163 377 138 l 641 558 m 256 1101 q 341 1069 306 1101 q 376 992 376 1038 l 376 342 q 341 265 376 297 q 256 233 306 233 q 171 265 206 233 q 136 342 136 297 l 136 992 q 171 1069 136 1038 q 256 1101 206 1101 m 1544 426 l 1615 464 q 1651 539 1651 494 q 1617 615 1651 583 q 1539 649 1584 647 l 1075 649 q 1145 802 1075 738 q 1315 867 1216 867 l 1534 867 q 1787 771 1682 867 q 1892 542 1892 676 q 1783 321 1892 407 l 1711 276 l 1622 219 l 1911 220 q 1840 66 1911 130 q 1671 2 1769 2 l 1188 2 q 1102 34 1138 2 q 1067 111 1067 65 q 1111 195 1067 162 l 1544 426 z "},"¾":{"ha":1700,"x_min":77,"x_max":2416,"o":"m 1069 558 l 1367 1035 q 1472 1091 1402 1091 q 1557 1059 1522 1091 q 1592 982 1592 1027 q 1575 927 1592 952 l 1328 532 l 1031 56 q 926 -1 996 -1 q 841 31 876 -1 q 806 108 806 63 q 823 163 806 138 l 1069 558 m 556 663 l 576 672 q 653 767 651 699 q 619 844 653 811 q 541 877 586 875 l 77 877 q 148 1031 77 967 q 317 1095 218 1095 l 536 1095 q 789 1000 684 1095 q 894 770 894 904 q 878 676 894 719 q 906 553 906 620 q 801 323 906 419 q 549 228 697 228 l 330 228 q 160 292 231 228 q 90 446 90 356 l 553 446 q 627 480 599 448 q 662 556 662 513 q 587 654 662 626 l 556 663 m 2031 868 q 2116 836 2081 868 q 2151 759 2151 804 l 2151 438 l 2416 438 q 2345 284 2416 348 q 2176 220 2275 220 l 2151 220 l 2151 109 q 2116 32 2151 63 q 2031 0 2081 0 q 1946 32 1981 0 q 1911 109 1911 63 l 1911 220 l 1805 220 q 1635 284 1706 220 q 1565 438 1565 348 l 1565 759 q 1600 836 1565 804 q 1685 868 1636 868 q 1770 836 1735 868 q 1805 759 1805 804 l 1805 438 l 1911 438 l 1911 759 q 1946 836 1911 804 q 2031 868 1981 868 z "},"·":{"ha":487,"x_min":95,"x_max":388,"o":"m 95 572 q 107 624 95 600 q 138 667 118 649 q 184 695 158 685 q 241 706 211 706 q 298 695 271 706 q 344 667 324 685 q 376 624 365 649 q 388 572 388 600 q 376 521 388 545 q 344 479 365 497 q 298 451 324 461 q 241 440 271 440 q 184 451 211 440 q 138 479 158 461 q 107 521 118 497 q 95 572 95 545 z "},"¹":{"ha":526,"x_min":140,"x_max":380,"o":"m 260 1097 q 345 1065 310 1097 q 380 988 380 1033 l 380 338 q 345 260 380 292 q 260 228 310 228 q 175 260 210 228 q 140 338 140 292 l 140 988 q 175 1065 140 1033 q 260 1097 210 1097 z "},"²":{"ha":977,"x_min":72,"x_max":915,"o":"m 548 654 l 619 692 q 656 767 656 723 q 621 844 656 811 q 543 877 588 875 l 79 877 q 150 1031 79 967 q 319 1095 220 1095 l 538 1095 q 791 1000 686 1095 q 896 770 896 904 q 787 549 896 635 l 715 504 l 626 447 l 915 449 q 844 294 915 358 q 675 231 774 231 l 192 231 q 107 262 142 231 q 72 340 72 294 q 115 424 72 390 l 548 654 z "},"³":{"ha":1055,"x_min":110,"x_max":940,"o":"m 590 663 l 610 672 q 687 767 684 699 q 652 844 687 811 q 574 877 619 875 l 110 877 q 181 1031 110 967 q 351 1095 251 1095 l 569 1095 q 822 1000 717 1095 q 927 770 927 904 q 912 676 927 719 q 940 553 940 620 q 835 323 940 419 q 582 228 730 228 l 363 228 q 193 292 264 228 q 123 446 123 356 l 587 446 q 660 480 632 448 q 695 556 695 513 q 620 654 695 626 l 590 663 z "},"»":{"ha":1313,"x_min":95,"x_max":1206,"o":"m 707 1069 q 796 1089 746 1096 q 875 1047 846 1083 l 1141 725 q 1206 553 1206 647 q 1142 381 1206 459 l 869 47 l 869 46 q 790 4 839 10 q 701 24 740 -3 q 654 95 661 51 q 676 176 647 140 l 676 177 l 984 553 l 683 915 l 683 916 q 660 996 653 951 q 707 1069 667 1041 m 156 1069 q 244 1089 194 1096 q 324 1047 294 1083 l 590 725 q 654 553 654 647 q 591 381 654 459 l 318 47 l 317 46 q 238 4 288 10 q 149 24 189 -3 q 102 95 110 51 q 124 176 95 140 l 125 177 l 433 553 l 132 915 l 132 916 q 109 996 102 951 q 156 1069 115 1041 z "},"«":{"ha":1313,"x_min":95,"x_max":1206,"o":"m 1145 1069 q 1192 996 1185 1041 q 1169 916 1199 951 l 1169 915 l 868 553 l 1176 177 l 1176 176 q 1198 95 1206 140 q 1151 24 1191 51 q 1063 4 1112 -3 q 983 46 1013 10 l 983 47 l 710 381 q 647 553 647 459 q 711 725 647 647 l 977 1047 q 1056 1089 1006 1083 q 1145 1069 1106 1096 m 594 1069 q 641 996 634 1041 q 617 916 647 951 l 617 915 l 317 553 l 624 177 l 625 176 q 647 95 654 140 q 600 24 640 51 q 511 4 560 -3 q 432 46 462 10 l 431 47 l 158 381 q 95 553 95 459 q 160 725 95 647 l 426 1047 q 505 1089 455 1083 q 594 1069 555 1096 z "},"›":{"ha":749,"x_min":95,"x_max":654,"o":"m 156 1069 q 244 1089 194 1096 q 324 1047 294 1083 l 590 725 q 654 553 654 647 q 591 381 654 459 l 318 47 l 317 46 q 238 4 288 10 q 149 24 189 -3 q 102 95 110 51 q 124 176 95 140 l 125 177 l 433 553 l 132 915 l 132 916 q 109 996 102 951 q 156 1069 115 1041 z "},"‹":{"ha":749,"x_min":95,"x_max":654,"o":"m 594 1069 q 641 996 634 1041 q 617 916 647 951 l 617 915 l 317 553 l 624 177 l 625 176 q 647 95 654 140 q 600 24 640 51 q 511 4 560 -3 q 432 46 462 10 l 431 47 l 158 381 q 95 553 95 459 q 160 725 95 647 l 426 1047 q 505 1089 455 1083 q 594 1069 555 1096 z "},"†":{"ha":831,"x_min":71,"x_max":756,"o":"m 71 760 q 103 839 71 807 q 180 872 135 872 l 290 872 l 290 981 q 325 1058 290 1026 q 410 1090 360 1090 q 495 1058 460 1090 q 530 981 530 1026 l 530 872 l 647 872 q 724 839 692 872 q 756 760 756 807 q 724 682 756 714 q 647 649 692 649 l 530 649 l 530 109 q 495 32 530 63 q 410 0 460 0 q 325 32 360 0 q 290 109 290 63 l 290 649 l 180 649 q 103 682 135 649 q 71 760 71 714 z "},"‡":{"ha":831,"x_min":71,"x_max":756,"o":"m 71 331 q 103 409 71 377 q 180 442 135 442 l 290 442 l 290 649 l 180 649 q 103 682 135 649 q 71 760 71 714 q 103 839 71 807 q 180 872 135 872 l 290 872 l 290 981 q 325 1058 290 1026 q 410 1090 360 1090 q 495 1058 460 1090 q 530 981 530 1026 l 530 872 l 647 872 q 724 839 692 872 q 756 760 756 807 q 724 682 756 714 q 647 649 692 649 l 530 649 l 530 442 l 647 442 q 724 409 692 442 q 756 331 756 377 q 724 252 756 284 q 647 219 692 219 l 530 219 l 530 109 q 495 32 530 63 q 410 0 460 0 q 325 32 360 0 q 290 109 290 63 l 290 219 l 180 219 q 103 252 135 219 q 71 331 71 284 z "},"™":{"ha":1408,"x_min":95,"x_max":1272,"o":"m 395 1006 l 395 726 q 382 697 395 709 q 351 685 369 685 q 319 697 332 685 q 306 726 306 709 l 306 1006 l 95 1006 l 95 1009 q 121 1066 95 1042 q 184 1090 147 1090 l 517 1090 q 580 1066 553 1090 q 606 1009 606 1042 l 606 1006 l 395 1006 m 1228 1090 q 1259 1078 1247 1090 q 1272 1050 1272 1067 l 1272 726 q 1259 697 1272 709 q 1228 685 1247 685 q 1197 697 1210 685 q 1183 726 1183 709 l 1183 925 l 1023 724 q 974 703 1005 703 q 926 724 944 703 l 766 925 l 766 726 q 753 697 766 709 q 722 685 740 685 q 690 697 703 685 q 677 726 677 709 l 677 1050 q 690 1078 677 1067 q 722 1090 703 1090 q 758 1074 744 1090 l 758 1073 l 974 802 l 1192 1073 l 1192 1074 q 1228 1090 1206 1090 z "},"¡":{"ha":431,"x_min":95,"x_max":336,"o":"m 95 981 q 105 1024 95 1004 q 130 1058 114 1044 q 168 1082 147 1073 q 215 1090 190 1090 q 262 1082 240 1090 q 301 1058 284 1073 q 327 1024 317 1044 q 336 981 336 1004 q 327 939 336 958 q 301 904 317 919 q 262 880 284 889 q 215 872 240 872 q 168 880 190 872 q 130 904 147 889 q 105 939 114 919 q 95 981 95 958 m 215 0 q 130 32 165 0 q 95 109 95 64 l 95 543 q 130 620 95 589 q 215 652 165 652 q 300 620 265 652 q 335 543 335 589 l 335 109 q 300 32 335 64 q 215 0 265 0 z "},"¿":{"ha":1567,"x_min":95,"x_max":1472,"o":"m 718 436 l 448 436 q 370 404 403 435 q 335 328 335 372 q 370 251 335 284 q 453 218 404 218 l 1472 218 q 1401 64 1472 128 q 1231 0 1330 0 l 453 0 q 200 95 305 0 q 95 325 95 191 q 200 555 95 460 q 453 650 305 650 l 958 654 q 888 500 958 564 q 718 436 817 436 m 942 981 q 932 939 942 958 q 907 904 923 919 q 868 880 890 889 q 822 872 847 872 q 775 880 797 872 q 736 904 753 889 q 710 939 719 919 q 701 981 701 958 q 710 1024 701 1004 q 736 1058 719 1044 q 775 1082 753 1073 q 822 1090 797 1090 q 868 1082 847 1090 q 907 1058 890 1073 q 932 1024 923 1044 q 942 981 942 1004 z "},"“":{"ha":763,"x_min":95,"x_max":671,"o":"m 671 1093 l 671 990 q 600 835 671 899 q 431 772 530 772 l 431 1093 l 671 1093 m 335 1093 l 335 990 q 265 835 335 899 q 95 772 194 772 l 95 1093 l 335 1093 z "},"”":{"ha":763,"x_min":95,"x_max":671,"o":"m 431 772 l 431 875 q 501 1029 431 965 q 671 1093 572 1093 l 671 772 l 431 772 m 95 772 l 95 875 q 166 1029 95 965 q 335 1093 236 1093 l 335 772 l 95 772 z "},"‘":{"ha":431,"x_min":95,"x_max":335,"o":"m 335 1093 l 335 990 q 265 835 335 899 q 95 772 194 772 l 95 1093 l 335 1093 z "},"’":{"ha":431,"x_min":95,"x_max":335,"o":"m 95 772 l 95 875 q 166 1029 95 965 q 335 1093 236 1093 l 335 772 l 95 772 z "},"„":{"ha":776,"x_min":95,"x_max":669,"o":"m 669 314 l 669 210 q 599 56 669 120 q 429 -8 528 -8 l 429 314 l 669 314 m 335 314 l 335 210 q 265 56 335 120 q 95 -8 194 -8 l 95 314 l 335 314 z "},"‚":{"ha":431,"x_min":95,"x_max":335,"o":"m 335 314 l 335 210 q 265 56 335 120 q 95 -8 194 -8 l 95 314 l 335 314 z "}}}
